<svg width="31" height="18" viewBox="0 0 31 18" fill="none" xmlns="http://www.w3.org/2000/svg">
<path d="M0.696114 0.930606C0.775986 1.04798 0.364384 1.61874 0.306465 1.4599C0.297813 1.4305 0.500008 1.33529 0.517403 1.26557C0.548576 1.13783 0.219912 1.43218 0.331856 1.21479C0.355057 1.17354 0.690609 0.924071 0.69709 0.92963L0.696114 0.930606ZM30.9891 2.97846C31.0723 3.15067 30.6532 2.69689 30.6268 2.67182C30.3573 2.42091 30.5911 2.77331 30.5985 2.80561C30.6323 2.9534 30.5282 2.93128 30.5457 3.04291C30.5585 3.1168 30.8255 3.41964 30.7938 3.43158C30.6876 3.47076 30.2816 3.07556 30.536 3.5058C30.5903 3.59786 30.9036 3.91354 30.6141 3.706C30.5958 3.69285 30.3391 3.49395 30.45 3.66596C30.4649 3.68844 30.5513 3.78324 30.5545 3.79486C30.5743 3.87087 30.4878 3.81152 30.491 3.87397C30.4947 3.93692 30.5083 4.02323 30.4461 4.02143C30.4084 4.02016 30.2215 3.86469 30.1717 3.82904C30.0307 3.7276 30.1868 3.96085 30.0321 3.82318C29.8765 3.68474 29.6995 3.42117 29.5653 3.36225C29.7886 3.61344 30.0164 3.87337 30.2401 4.1269C30.1341 4.20649 29.9644 4.21295 29.8758 4.31244C29.8654 4.32521 29.998 4.44784 29.991 4.46576C29.955 4.53681 29.8196 4.48542 29.7967 4.57514C29.7803 4.64577 29.8586 4.83086 29.8446 4.90815C29.5589 4.64817 29.5772 4.8072 29.5037 4.82611C29.4777 4.83164 29.4105 4.75476 29.3758 4.74115C29.2464 4.69175 29.495 4.92391 29.5184 4.97553C29.6157 5.1945 29.0968 4.62825 29.0438 4.70014C29.0419 4.70532 29.2716 5.04551 29.284 5.07123C29.3584 5.22788 29.1828 4.97039 29.1395 4.96869C29.0603 4.96551 28.9653 4.91954 28.9959 5.05268C29.0055 5.09228 29.142 5.3133 28.9822 5.19233C28.9615 5.17659 28.8741 5.07565 28.8641 5.07025C28.722 5.02055 29.0052 5.33877 29.0711 5.47358C29.1362 5.60739 28.8927 5.43234 28.826 5.37787C28.6559 5.23918 28.7814 5.28954 28.7703 5.27338C28.6151 5.06899 28.6091 5.13283 28.5682 5.14057C28.285 4.83406 28.2652 4.88546 28.5272 5.14936C28.5557 5.17797 28.5505 5.13199 28.5682 5.14057C28.8192 5.4657 28.8143 5.54144 28.5135 5.29779C28.3723 5.18338 28.2516 5.00972 28.2391 5.12397C28.2338 5.17604 28.4367 5.37969 28.4637 5.46088C28.5247 5.6458 28.2703 5.51543 28.2381 5.60053C28.2273 5.6318 28.3531 5.72937 28.3494 5.75483C28.3383 5.82185 28.2241 5.76646 28.2244 5.84662C28.2272 5.8563 28.3437 5.9698 28.3328 5.98236C28.2519 6.08009 28.1004 6.07568 28.0008 6.16108C27.9526 6.20269 27.9282 6.34721 27.867 6.37787C27.7613 6.43124 27.4962 6.34749 27.4627 6.456C27.4409 6.52632 27.5612 6.63967 27.616 6.74115C27.7221 6.93732 27.3933 6.71186 27.3426 6.67475C27.3412 6.67251 27.3549 6.60733 27.2772 6.5644C27.1477 6.44589 27.3394 6.67005 27.3426 6.67475C27.3102 6.65169 27.2046 6.69651 27.2088 6.73432C27.2133 6.75612 27.319 6.86401 27.3211 6.87494C27.3059 7.0765 27.2232 7.20377 27.0643 7.24897C27.0571 7.24457 26.9484 7.11976 26.9383 7.11713C26.8226 7.11708 26.9245 7.31237 26.9569 7.45404C26.989 7.59549 26.9191 7.60074 26.6873 7.40619C26.6729 7.46998 26.527 7.4237 26.4403 7.3935C26.3536 7.36329 26.5773 7.62028 26.5789 7.62787C26.6327 7.86811 26.4504 7.77187 26.3367 7.83295C26.2823 7.86183 26.2261 7.97782 26.2029 8.04877C26.1849 8.10479 26.1093 8.06669 26.1082 8.13568C26.108 8.1449 26.2117 8.25073 26.2166 8.25873C26.2988 8.42836 26.07 8.13695 26.0174 8.09467C25.8277 7.94282 25.7235 7.86468 25.7488 7.99311C25.7568 8.02537 26.0781 8.45016 26.0779 8.49213C26.0756 8.54317 25.9594 8.39522 25.9617 8.45502C25.9666 8.4648 26.0398 8.54626 26.0203 8.55854C25.9232 8.61557 25.787 8.64588 25.7098 8.73139C25.7042 8.7463 25.8374 8.86608 25.826 8.88568C25.7619 8.97329 25.6704 9.04637 25.535 9.05072C25.5011 9.05077 25.4255 8.94416 25.3953 8.91889C25.2128 8.76709 25.4057 9.05326 25.4041 9.06342C25.3728 9.3114 25.0587 9.17988 25.0135 9.41791C25.0142 9.4359 25.1952 9.7554 24.9598 9.54779C24.9422 9.53239 24.7028 9.32117 24.826 9.50483C24.8371 9.51897 24.9598 9.6241 24.9207 9.63764C24.8807 9.65129 24.9077 9.77445 24.7469 9.67572C24.696 9.64451 24.4516 9.43307 24.5848 9.65619C24.5954 9.67326 24.9226 10.153 24.6356 9.87592C24.5882 9.83003 24.3105 9.51364 24.41 9.71381C24.4295 9.75256 24.5071 9.80925 24.5242 9.87299C24.5501 9.97098 24.4294 9.92904 24.5125 10.1064C24.5274 10.1378 24.688 10.3787 24.5174 10.2402C24.4907 10.2185 24.4038 10.1086 24.3797 10.1083C24.2658 10.1094 24.262 10.2378 24.1326 10.2236C24.0866 10.218 23.9452 10.0394 23.8807 10.0156C23.8162 9.99197 23.7299 9.99171 23.7742 10.0908C23.819 10.1905 24.0889 10.4359 24.0711 10.4912C23.9934 10.7306 23.6912 10.7182 23.5086 10.8408C23.4824 10.8592 23.588 10.937 23.5545 10.9706C23.4306 11.0953 23.2868 11.3878 22.9891 11.2851C22.7511 11.2027 22.7516 10.9759 22.6229 10.9706C22.5612 10.9689 22.8027 11.3097 22.8074 11.332C22.8188 11.5028 22.6391 11.4144 22.6063 11.5205C22.5997 11.5426 22.7285 11.6574 22.7215 11.6747C22.6985 11.7347 22.6024 11.7186 22.5711 11.7656C22.5583 11.7874 22.6474 11.8794 22.6248 11.8876C22.5695 11.9071 22.4968 11.8992 22.3758 11.8437C22.3635 11.8362 22.2794 11.6966 22.2459 11.7187C22.1912 11.7545 22.0513 11.7197 22.0789 11.8613C22.088 11.9043 22.2873 12.126 22.1141 12.0048C22.0773 11.9787 21.8476 11.7059 22.0135 11.9726C22.0417 12.0182 22.2514 12.3884 22.0379 12.2197C21.9818 12.1753 21.7644 11.9798 21.7733 12.0292C21.7755 12.0371 21.8928 12.1471 21.8875 12.1738C21.8648 12.2646 21.7921 12.3067 21.7664 12.3974C21.761 12.4223 21.8933 12.5226 21.8817 12.5556C21.8449 12.6451 21.7357 12.6873 21.6375 12.706C21.6011 12.7125 21.5253 12.5957 21.5135 12.5859C21.325 12.4313 21.5234 12.6852 21.5301 12.7109C21.5503 12.8468 21.4048 12.772 21.3797 12.8486C21.3726 12.8696 21.4875 12.9772 21.494 12.9902C21.5553 13.1176 21.3906 12.8903 21.3504 12.8828C21.239 12.865 21.1881 12.9283 21.1483 12.9912C21.1363 13.0156 21.2768 13.1292 21.2625 13.1484C21.1797 13.2649 21.0603 13.3491 20.8924 13.3662C20.8603 13.3684 20.778 13.2544 20.7528 13.2343C20.578 13.0951 20.7383 13.3515 20.7508 13.3847C20.7974 13.5207 20.6986 13.4453 20.6766 13.4951C20.5722 13.7438 20.2927 13.8852 20.0877 14.0019C19.8213 14.1543 19.5594 14.2124 19.3699 14.4296C19.3615 14.4457 19.4941 14.5673 19.4871 14.582C19.3667 14.7507 19.1702 14.8311 19.0555 15.0068C19.0483 15.0224 19.18 15.1346 19.1697 15.1621C19.147 15.2186 19.0884 15.2586 19.0096 15.2538C18.9712 15.25 18.8974 15.1156 18.8612 15.1152C18.7766 15.1156 18.7177 15.1516 18.6883 15.2158C18.676 15.2435 18.8269 15.3503 18.8016 15.3759C18.6316 15.5532 18.4736 15.7369 18.1336 15.7294C18.1098 15.7283 17.8537 15.4677 17.8738 15.5439C17.9399 15.6212 18.0208 15.7105 18.0926 15.7919C17.8666 16.0743 17.5181 16.2163 17.2391 16.4413C17.2322 16.4541 17.3756 16.577 17.3553 16.5966C17.2279 16.7077 17.1411 16.8575 16.8836 16.83C16.8568 16.8255 16.6373 16.5688 16.6336 16.6396C16.6333 16.6525 16.6068 16.7374 16.6414 16.8056C16.6469 16.8157 16.7642 16.9249 16.7498 16.9453C16.6601 17.0587 16.5242 17.1322 16.3533 17.1552C16.3254 17.1579 16.2301 17.0165 16.2088 17.0165C16.0628 17.0277 16.0548 17.2076 15.8699 17.1679C15.7453 17.1405 15.5683 16.904 15.3455 16.7158C15.3206 16.695 15.2925 16.7051 15.2244 16.6494C15.1839 16.6946 15.14 16.7412 15.1092 16.7626C15.0507 16.8031 15.1337 16.6869 15.0594 16.7294C14.9836 16.7737 14.8602 16.924 14.8065 16.9062C14.6829 16.8629 14.6046 16.7153 14.5682 16.5781C14.5566 16.5352 14.6422 16.4696 14.6375 16.4365C14.628 16.3721 14.5594 16.378 14.5555 16.3085C14.5546 16.285 14.6817 16.1759 14.6795 16.1533C14.6596 16.0341 14.5635 16.0036 14.5164 15.9121C14.4972 15.8744 14.477 15.8372 14.4569 15.8007C14.3953 15.7321 14.335 15.6625 14.2723 15.5956C14.2059 15.5249 14.2302 15.6426 14.1004 15.4443C14.0918 15.4305 14.072 15.3435 14.0272 15.2773C13.996 15.2313 13.8713 15.1125 13.8358 15.0497C13.8013 14.9882 13.9085 15.0819 13.8729 15.0038C13.8417 14.9369 13.7405 14.8287 13.7225 14.7656C13.7086 14.7481 13.6944 14.7304 13.6805 14.7128C13.5807 14.5866 13.5407 14.3443 13.3748 14.2822C13.3543 14.2773 13.2647 14.3907 13.2537 14.3974C13.0857 14.4955 13.3013 14.2887 13.3006 14.2343C13.297 14.0195 13.1842 13.8975 13.0408 13.8427C12.9791 13.822 12.8269 14.0756 12.8924 13.915C12.8968 13.904 13.014 13.7991 13.0135 13.7753C13.0111 13.7222 12.9398 13.6939 12.9266 13.665C12.9019 13.6089 12.8933 13.6037 12.8553 13.5663C12.8044 13.5141 12.793 13.399 12.7117 13.372C12.6933 13.3683 12.6024 13.498 12.5643 13.5009C12.5262 13.5029 12.4829 13.4443 12.491 13.4003C12.5 13.3562 12.5926 13.2711 12.6092 13.247C12.7482 13.0449 12.4602 13.2367 12.4461 13.2363C12.2091 13.2113 12.2183 12.9591 12.0858 12.8378C11.9849 12.7461 11.8345 12.6938 11.7449 12.5996C11.6388 12.4868 11.6017 12.3338 11.4813 12.2431C11.4688 12.2335 11.3556 12.3832 11.3387 12.374C11.1725 12.2508 11.0359 12.0966 10.9715 11.8642C10.9658 11.8406 11.0961 11.7371 11.0975 11.706C11.0974 11.5205 11.1715 11.1464 10.6287 11.6259C10.5852 11.5477 10.5298 11.456 10.5721 11.2978C10.5994 11.1959 10.7555 11.0949 10.66 11.1103C10.6382 11.1141 10.5436 11.2429 10.5194 11.2392C10.4173 11.2234 10.3831 11.1215 10.2654 11.124C10.2413 11.1248 10.1491 11.2319 10.1278 11.248C9.95812 11.3715 10.1385 11.0742 10.1444 11.0458C10.1858 10.8333 10.0756 10.8306 10.0008 10.7558C9.98348 10.7383 9.87561 10.8975 9.85432 10.8857C9.74577 10.8227 9.66284 10.7243 9.63166 10.581C9.62596 10.5486 9.75163 10.4471 9.75568 10.4247C9.76438 10.3327 9.54916 10.5469 9.55354 10.4628C9.55579 10.4442 9.65223 10.3483 9.66193 10.3349C9.7975 10.1405 9.55891 10.3596 9.53986 10.3671C9.3929 10.3707 9.58133 10.0647 9.47248 10.0322C9.45816 10.0306 9.36085 10.1758 9.33088 10.1581C9.1298 10.0388 8.98446 9.83955 8.91291 9.58295C8.90178 9.54321 9.00895 9.46264 9.01838 9.44916C9.16292 9.23902 8.91732 9.47189 8.89924 9.47455C8.7703 9.48091 8.90044 9.21342 8.58088 9.46967C8.39372 9.10705 7.9597 9.01535 7.92561 8.49115C7.92761 8.48243 8.0426 8.36911 8.04279 8.35541C8.02104 8.20755 7.86077 8.41346 7.58869 8.59565C7.52027 8.64137 7.7375 8.31816 7.75275 8.29389C7.8097 8.2044 7.99286 8.0356 8.00178 8.01654C8.06985 7.86499 7.51779 8.47552 7.46467 8.42865C7.4677 8.42273 7.57233 8.32296 7.5799 8.30658C7.59837 8.25919 7.54418 8.2899 7.56623 8.2392C7.61823 8.12176 7.87667 7.81796 7.67268 7.94623C7.64485 7.96482 7.3395 8.31501 7.30744 8.25678C7.29508 8.23289 7.20744 8.16262 7.2049 8.11908C7.20285 8.076 7.31769 7.98187 7.32307 7.97358C7.39597 7.7699 7.47564 7.72996 7.64436 7.48432C7.81116 7.24098 7.34698 7.7621 7.2801 7.80951C7.21532 7.85425 7.27985 7.69224 7.30744 7.63959C7.33514 7.58747 7.41338 7.52991 7.42561 7.49701C7.5029 7.2808 7.16136 7.72617 7.06428 7.78803C6.83524 7.93425 7.14585 7.51709 7.13459 7.43549C7.13117 7.41387 7.06178 7.50951 7.04279 7.50775C6.96964 7.49754 7.05176 7.35342 6.90022 7.41596C6.87308 7.4281 6.625 7.61762 6.75275 7.42572C6.77145 7.39794 6.86858 7.31245 6.86994 7.27338C6.87097 7.21512 6.83809 7.14666 6.77814 7.15033C6.73351 7.15426 6.61622 7.33346 6.63264 7.25873C6.64065 7.22529 6.74628 7.1554 6.75373 7.10053C6.7607 7.0457 6.69776 6.99367 6.6717 6.97553C6.64577 6.95765 6.54813 7.08835 6.53889 7.09467C6.48603 7.12978 6.39074 7.14662 6.38459 7.1435C6.17541 6.97728 6.17836 6.61051 5.92658 6.50092C5.90607 6.49383 5.80087 6.62596 5.7967 6.62592C5.69876 6.63015 6.04519 6.33394 6.11213 6.1894C5.88284 6.44883 5.90431 6.38428 5.8426 6.37885C5.81288 6.37651 5.73273 6.48257 5.72053 6.49311C5.55722 6.61868 5.71703 6.40805 5.74885 6.3642C5.86501 6.20375 5.68892 6.35747 5.76643 6.24994C5.84364 6.14303 6.00147 6.02465 5.96662 5.99408C5.87301 6.07626 5.67922 6.33836 5.61701 6.35346C5.38317 6.40816 5.36935 6.05017 5.30744 5.95697C5.2456 5.86415 5.20439 5.85596 5.1883 5.78022C5.15888 5.64569 5.02732 5.84927 4.90119 5.88275C4.77449 5.91559 5.19896 5.50422 5.27814 5.40326C5.35677 5.30309 5.26097 5.39127 5.29865 5.33197C5.33686 5.27223 5.41562 5.22651 5.41193 5.18744C5.40814 5.14839 5.19524 5.2607 5.09748 5.3515C4.89074 5.54385 4.71793 5.7857 4.73127 5.65717C4.73274 5.64918 4.84653 5.545 4.84553 5.52143C4.82694 5.34196 4.72866 5.24057 4.701 5.07123C4.69923 5.04685 4.8245 4.93357 4.826 4.91693C4.81778 4.76015 4.65026 5.0017 4.38557 5.19818C4.68682 4.89136 4.84042 4.67396 4.78107 4.61322C4.74448 4.57725 4.6228 4.7205 4.50861 4.79584C4.47416 4.81854 4.53443 4.69995 4.46955 4.76068C4.25743 4.95906 4.06317 5.22003 4.08576 5.06537C4.09009 5.05571 4.20073 4.95151 4.19904 4.93451C4.17809 4.82992 3.96666 5.04413 3.87287 5.00873C3.7998 4.98005 3.82774 4.75632 3.78693 4.67768C4.11658 4.32221 3.98397 4.35008 3.7342 4.57416C3.70366 4.52791 3.64872 4.50237 3.64143 4.43354C3.63888 4.40991 3.74103 4.31537 3.7508 4.3017C3.88514 4.10487 3.6523 4.32205 3.63166 4.32709C3.45485 4.3325 3.54513 4.08275 3.29377 4.17768C3.28105 4.18513 3.05248 4.42178 3.19416 4.22065C3.20668 4.20534 3.33595 4.12084 3.30256 4.07416C3.26937 4.02612 3.31254 3.82248 3.14924 3.88373C3.10918 3.89896 2.8897 4.06585 3.00568 3.88275C3.02196 3.85766 3.09004 3.79043 3.12092 3.74604C3.21919 3.60375 2.97935 3.84482 3.15412 3.61322C3.32923 3.38122 3.4328 3.18236 3.23908 3.27533C3.2268 3.28418 3.0382 3.46096 3.02131 3.4433C2.99707 3.41088 2.99321 3.33169 2.96174 3.30463C2.94641 3.2918 2.84136 3.42386 2.83674 3.42377C2.67501 3.4016 2.70616 3.22595 2.64436 3.081C2.63064 3.05627 2.42369 3.17083 2.50764 3.00483C2.60033 2.82145 3.19872 2.25442 2.97248 2.31049C2.88117 2.33298 2.12573 3.05693 2.42268 2.59662C2.19904 2.57236 2.26277 2.25571 1.99982 2.27338C1.98427 2.27791 1.77441 2.46798 1.76057 2.45502C1.74397 2.43097 1.8251 2.31918 1.81623 2.29877C1.78109 2.21128 1.64472 2.24355 1.5965 2.17475C1.57911 2.14828 1.68097 2.0523 1.659 2.02143C1.63578 1.99218 1.49298 2.10924 1.51643 2.00971C1.53617 1.93231 1.76349 1.63024 1.75666 1.56342C1.50219 1.83696 1.48103 1.80808 1.36897 1.83881C1.34675 1.84604 1.26878 1.94868 1.25373 1.95697C1.19209 1.99033 1.24919 1.89799 1.18439 1.93647C1.16864 1.94579 1.08106 2.03975 1.0633 2.05268C0.910078 2.16509 1.05902 1.91473 1.08576 1.87006C1.18497 1.70367 1.0597 1.81264 1.08772 1.73725C1.116 1.66166 1.21303 1.62282 1.2176 1.56537C1.22659 1.44699 1.14266 1.39756 1.09162 1.34272C1.07068 1.32249 0.973011 1.45696 0.964668 1.46088C0.889996 1.45084 0.966228 1.27509 0.711739 1.50092C1.27329 0.827888 0.628162 1.5372 0.680489 1.35053C0.684994 1.33538 0.958994 1.02438 1.02033 0.997013C1.08111 0.970424 1.0235 1.09257 1.11506 1.04779C1.13926 1.03497 1.43479 0.786895 1.45783 0.772403C1.62048 0.674712 1.20845 1.13383 1.18635 1.16205C0.961756 1.45347 1.28844 1.1881 1.32111 1.1767C1.46541 1.12921 1.45364 1.23668 1.5633 1.20893C1.63543 1.1899 1.91264 0.895128 1.92756 0.925724C1.97648 1.02814 1.62086 1.46921 2.02619 1.17572C2.11288 1.11308 2.39764 0.771612 2.2176 1.08002C2.20562 1.1004 2.03253 1.37315 2.19318 1.24701C2.21363 1.23085 2.30087 1.13524 2.31232 1.1308C2.38619 1.10419 2.33476 1.1959 2.39729 1.18647C2.45984 1.177 2.54491 1.15602 2.54865 1.21869C2.55024 1.25712 2.4134 1.45693 2.38264 1.50971C2.29517 1.65916 2.51204 1.48153 2.38947 1.64838C2.26632 1.81609 2.02083 2.01691 1.97443 2.15619C2.20367 1.91051 2.44213 1.66016 2.67365 1.414C2.76277 1.51238 2.78496 1.68059 2.8924 1.75971C2.90652 1.76835 3.0173 1.62498 3.03498 1.63178C3.10815 1.66177 3.06991 1.79968 3.16096 1.8144C3.23253 1.82464 3.40938 1.7298 3.48811 1.73627C3.25651 2.04421 3.41217 2.01186 3.4383 2.08295C3.44733 2.10793 3.3764 2.18266 3.36604 2.21869C3.32907 2.35207 3.53742 2.08275 3.58674 2.05463C3.79532 1.93785 3.28156 2.50668 3.35725 2.55365C3.3691 2.54948 3.67849 2.29482 3.70393 2.27924C3.85275 2.19089 3.61368 2.39013 3.61604 2.43354C3.62032 2.5128 3.58332 2.6114 3.71369 2.5683C3.75286 2.5546 3.95839 2.39954 3.85334 2.56928C3.83949 2.59165 3.74583 2.69022 3.74299 2.69916C3.70721 2.84475 3.99667 2.53315 4.12482 2.45502C4.25273 2.37717 4.10159 2.63635 4.05354 2.70795C3.93127 2.89051 3.96972 2.76148 3.9549 2.77338C3.7655 2.94711 3.82907 2.94718 3.84064 2.98725C3.56191 3.29766 3.61583 3.31296 3.85432 3.02729C3.87999 2.99637 3.83411 3.00539 3.84064 2.98725C4.14117 2.70702 4.21735 2.70489 4.00275 3.02729C3.90208 3.17842 3.74065 3.31418 3.85529 3.31635C3.90763 3.31697 4.09134 3.09579 4.16975 3.06147C4.34871 2.98325 4.24288 3.24916 4.33088 3.27338C4.3631 3.28147 4.44889 3.14743 4.47443 3.14936C4.542 3.15463 4.49767 3.27275 4.57795 3.26459C4.58866 3.25913 4.68853 3.1349 4.70197 3.14447C4.80743 3.21621 4.81703 3.36843 4.91193 3.4599C4.95803 3.50389 5.10281 3.51442 5.13947 3.57221C5.20298 3.67241 5.14521 3.94425 5.25666 3.96772C5.32883 3.98313 5.43014 3.85305 5.52619 3.789C5.71158 3.6653 5.5189 4.01236 5.48615 4.06733C5.48508 4.06905 5.41741 4.06139 5.38166 4.1435C5.27553 4.28388 5.48518 4.06747 5.48615 4.06733C5.46581 4.10162 5.52104 4.20368 5.55842 4.19525C5.57994 4.18844 5.67675 4.07422 5.68732 4.07123C5.8899 4.06783 6.02574 4.1384 6.08576 4.29291C6.08135 4.30116 5.96468 4.42272 5.96564 4.43061C5.9765 4.54581 6.16051 4.42613 6.29865 4.3808C6.43684 4.33562 6.45035 4.40607 6.27814 4.65522C6.34267 4.66415 6.30981 4.81222 6.28791 4.90131C6.26598 4.99048 6.5012 4.74444 6.50861 4.74213C6.74311 4.66653 6.66401 4.85721 6.73615 4.96479C6.77024 5.01621 6.88988 5.06047 6.96272 5.07709C7.02073 5.08978 6.99012 5.1695 7.05939 5.164C7.0708 5.16046 7.16638 5.04779 7.1717 5.04486C7.333 4.94743 7.06426 5.20247 7.02717 5.25873C6.89366 5.46188 6.82448 5.57212 6.95002 5.5351C6.97902 5.52659 7.37482 5.16478 7.41682 5.16108C7.46837 5.15846 7.331 5.28804 7.39045 5.28022C7.39902 5.27536 7.47403 5.19424 7.48811 5.21283C7.55427 5.30443 7.59761 5.43656 7.69025 5.5058C7.7047 5.51186 7.81409 5.36521 7.83381 5.3769C7.92696 5.43269 8.008 5.51706 8.02522 5.65131C8.02792 5.68517 7.92951 5.77031 7.90705 5.80268C7.773 5.99847 8.03864 5.78023 8.04963 5.78022C8.30034 5.78832 8.19835 6.11361 8.44025 6.13666C8.45546 6.13625 8.76065 5.9247 8.57502 6.17963C8.56023 6.20004 8.37384 6.45554 8.54475 6.31635C8.55833 6.30318 8.65067 6.17241 8.66779 6.2099C8.68505 6.24865 8.80586 6.21023 8.72248 6.37983C8.69611 6.4335 8.50875 6.69621 8.71857 6.54291C8.73853 6.52748 9.17979 6.16205 8.93244 6.47162C8.8912 6.52308 8.60249 6.83058 8.79279 6.71283C8.82968 6.68979 8.8781 6.60561 8.94025 6.58295C9.03572 6.54796 9.00544 6.67349 9.17463 6.57416C9.20548 6.5556 9.4283 6.37408 9.30647 6.55658C9.2872 6.58532 9.18598 6.68209 9.1883 6.706C9.20009 6.81943 9.32891 6.81107 9.32697 6.94135C9.32642 6.98734 9.16045 7.14413 9.1424 7.21088C9.12474 7.27744 9.1334 7.36503 9.22834 7.31147C9.32342 7.25762 9.54128 6.96694 9.59846 6.97846C9.84457 7.03374 9.86061 7.33587 9.99982 7.50678C10.0205 7.53213 10.089 7.41976 10.1258 7.45014C10.262 7.56207 10.5672 7.67845 10.493 7.98432C10.4332 8.2292 10.2072 8.24973 10.2147 8.37885C10.2204 8.43858 10.535 8.16764 10.5565 8.16108C10.7259 8.13401 10.6545 8.32088 10.7635 8.34369C10.786 8.34832 10.8877 8.21033 10.9061 8.21479C10.9679 8.23218 10.9611 8.32928 11.0106 8.35639C11.0335 8.3674 11.1185 8.26993 11.1287 8.29193C11.153 8.34514 11.1508 8.418 11.1072 8.54291C11.1032 8.55437 10.97 8.65272 10.9949 8.68451C11.036 8.73569 11.014 8.87886 11.1531 8.83783C11.1952 8.82476 11.3972 8.6063 11.2928 8.78998C11.2709 8.82848 11.0191 9.08341 11.2694 8.8935C11.3111 8.86197 11.6628 8.61791 11.5145 8.84662C11.4755 8.90677 11.3 9.14222 11.3494 9.12787C11.3571 9.12492 11.455 8.99827 11.4822 9.00092C11.5747 9.01518 11.6233 9.08307 11.7156 9.10053C11.7406 9.10489 11.8302 8.96099 11.8641 8.97065C11.9568 8.99909 12.0081 9.10496 12.036 9.20111C12.0456 9.23662 11.9394 9.32231 11.9295 9.33588C11.7923 9.53942 12.0306 9.31334 12.0526 9.30756C12.1856 9.27533 12.1241 9.42739 12.2029 9.44526C12.2243 9.45035 12.3186 9.32876 12.3328 9.3183C12.4542 9.24537 12.2441 9.42963 12.2401 9.47065C12.2329 9.58332 12.3006 9.62813 12.367 9.66205C12.3925 9.67163 12.4918 9.52226 12.5125 9.53412C12.6365 9.60599 12.7326 9.71681 12.7654 9.88276C12.7711 9.91432 12.6645 10.0057 12.6463 10.0331C12.523 10.2215 12.7672 10.0376 12.7977 10.0234C12.9292 9.96428 12.8624 10.0699 12.9149 10.0869C13.1722 10.1683 13.339 10.4325 13.4744 10.6259C13.6517 10.8776 13.7341 11.1337 13.9686 11.3027C13.9849 11.3105 14.0938 11.1663 14.1092 11.1718C14.2888 11.2763 14.3872 11.4651 14.5731 11.5634C14.5887 11.5704 14.6892 11.4276 14.7176 11.4355C14.7761 11.453 14.8213 11.5069 14.824 11.5859C14.8247 11.6244 14.6964 11.7108 14.7 11.747C14.7084 11.8316 14.7502 11.8867 14.8172 11.9101C14.8462 11.9193 14.9377 11.7593 14.9656 11.7822C15.1585 11.9354 15.357 12.0763 15.3817 12.416C15.3818 12.4408 15.1465 12.7184 15.2205 12.6913C15.2913 12.6185 15.3727 12.5301 15.4471 12.4511C15.7498 12.6504 15.9241 12.9847 16.1746 13.2421C16.1878 13.2483 16.2982 13.0923 16.3192 13.1122C16.4297 13.2175 16.5676 13.2869 16.5916 13.4892C16.7613 13.4794 16.8693 13.3887 16.9285 13.2685C16.9562 13.2094 16.7164 13.0334 16.8709 13.1142C16.8815 13.1197 16.9751 13.2452 16.9988 13.247C17.0516 13.2495 17.0862 13.1826 17.116 13.1718C17.1743 13.1525 17.1808 13.1446 17.2215 13.1103C17.2781 13.0645 17.3943 13.0638 17.4285 12.9853C17.4345 12.9676 17.3129 12.8644 17.3133 12.8261C17.315 12.7881 17.3759 12.7515 17.4188 12.7636C17.4615 12.7761 17.5375 12.8751 17.5604 12.8945C17.7494 13.0526 17.5846 12.7466 17.5867 12.7333C17.6334 12.5003 17.8837 12.5331 18.0164 12.413C18.1166 12.3214 18.1823 12.1768 18.284 12.0966C18.4058 12.0017 18.5616 11.9783 18.6629 11.8671C18.6707 11.8534 18.5339 11.7272 18.5467 11.7128C18.6842 11.5595 18.8493 11.4387 19.0858 11.3964C19.1096 11.3923 19.2018 11.5338 19.2322 11.5371C19.4166 11.5544 19.7816 11.6633 19.3543 11.0781C19.4362 11.0422 19.5327 10.9956 19.6863 11.0527C19.7852 11.0894 19.8706 11.2536 19.8641 11.1572C19.8613 11.1345 19.7444 11.0297 19.7498 11.0058C19.7748 10.9057 19.8781 10.8807 19.8865 10.7636C19.8873 10.739 19.7897 10.6374 19.7762 10.6152C19.6691 10.4352 19.9466 10.642 19.9754 10.6513C20.1832 10.7127 20.1969 10.6025 20.2781 10.5351C20.2951 10.5185 20.1494 10.3984 20.1619 10.3779C20.2345 10.2757 20.3398 10.2031 20.4852 10.1855C20.5179 10.1822 20.6086 10.3187 20.6297 10.3232C20.7208 10.3407 20.5264 10.1064 20.6102 10.1191C20.6285 10.123 20.7149 10.2273 20.7274 10.2382C20.9081 10.3912 20.7122 10.1324 20.7069 10.1132C20.7168 9.96679 21.0033 10.183 21.0457 10.0781C21.0491 10.0643 20.9128 9.95283 20.9334 9.92475C21.0705 9.73612 21.2822 9.61042 21.5438 9.56342C21.5843 9.55613 21.6542 9.67081 21.6668 9.68158C21.8623 9.8449 21.6538 9.57949 21.6522 9.56049C21.6575 9.43153 21.9115 9.58664 21.6863 9.24506C22.0647 9.09329 22.1957 8.669 22.7205 8.68451C22.7299 8.68852 22.8315 8.81272 22.8446 8.81342C22.9936 8.8057 22.8025 8.62762 22.6463 8.33979C22.6076 8.26794 22.9076 8.51283 22.9315 8.53119C23.0152 8.59597 23.1672 8.79395 23.1854 8.80463C23.3297 8.88655 22.7738 8.28179 22.824 8.23236C22.8266 8.2319 22.9212 8.34916 22.9363 8.35736C22.9816 8.38 22.9554 8.32385 23.0037 8.35053C23.1156 8.4131 23.3933 8.69955 23.285 8.48529C23.2707 8.45748 22.9493 8.11804 23.0106 8.09174C23.0359 8.08085 23.1128 8.00173 23.1561 8.00287C23.1996 8.00511 23.2848 8.13038 23.2908 8.13373C23.4866 8.22537 23.5191 8.30811 23.7479 8.49897C23.9744 8.68757 23.4982 8.17862 23.4569 8.10736C23.4178 8.03824 23.5743 8.11803 23.6238 8.15033C23.6732 8.18277 23.7231 8.26597 23.7547 8.28119C23.9624 8.37821 23.5505 7.99682 23.4979 7.89447C23.3732 7.65249 23.7623 8.00172 23.8436 7.99701C23.8628 7.994 23.7752 7.91665 23.7791 7.89838C23.7966 7.8278 23.9317 7.92259 23.8836 7.76654C23.8758 7.74099 23.7075 7.47225 23.8875 7.61811C23.9135 7.63936 23.9894 7.74406 24.0281 7.74897C24.086 7.75546 24.1561 7.72978 24.158 7.66986C24.1587 7.6253 23.9914 7.49122 24.0643 7.51459C24.0968 7.52552 24.1568 7.63783 24.2108 7.65033C24.2648 7.66229 24.3223 7.60408 24.3426 7.58002C24.3625 7.55616 24.2439 7.44916 24.2362 7.43744C24.2064 7.38225 24.1977 7.28711 24.201 7.27924C24.3854 7.08642 24.7506 7.12414 24.8826 6.88373C24.8919 6.86426 24.7692 6.74749 24.7694 6.74311C24.7738 6.64468 25.0369 7.0183 25.1746 7.09858C24.9376 6.84608 25.0005 6.87235 25.0115 6.81147C25.0159 6.78178 24.9191 6.69252 24.91 6.67963C24.7997 6.5049 24.9943 6.68388 25.035 6.71967C25.1841 6.85051 25.0467 6.66101 25.1463 6.74799C25.2459 6.83497 25.3503 7.00365 25.3836 6.97065C25.3104 6.86977 25.0677 6.65303 25.0584 6.58979C25.0255 6.35226 25.3816 6.37193 25.4803 6.31928C25.5781 6.26655 25.59 6.22658 25.6668 6.21772C25.8041 6.20131 25.6131 6.05059 25.5916 5.92182C25.5708 5.79296 25.9412 6.25499 26.034 6.34272C26.1263 6.43022 26.0476 6.32574 26.1033 6.36908C26.1592 6.41266 26.197 6.49484 26.2362 6.49506C26.2748 6.49423 26.1836 6.27352 26.1024 6.16791C25.9299 5.94395 25.7049 5.74885 25.8319 5.77436C25.8417 5.77953 25.9328 5.90052 25.9559 5.90131C26.1359 5.89977 26.2452 5.81148 26.4158 5.79975C26.4395 5.79834 26.5443 5.93779 26.5594 5.93842C26.7157 5.94486 26.4912 5.7552 26.3201 5.47358C26.5986 5.80322 26.801 5.97701 26.866 5.92182C26.9047 5.88857 26.7721 5.75433 26.7078 5.63373C26.689 5.59789 26.8014 5.66797 26.7479 5.59858C26.57 5.36897 26.3276 5.1514 26.4793 5.18842C26.4897 5.19522 26.5833 5.31492 26.5994 5.31342C26.7048 5.302 26.5101 5.071 26.5545 4.98139C26.5896 4.9113 26.8095 4.96089 26.8914 4.92768C27.2148 5.28912 27.199 5.15438 26.9988 4.88471C27.0481 4.85874 27.0796 4.80521 27.1492 4.80463C27.1738 4.80616 27.2567 4.91571 27.2694 4.9267C27.4545 5.08029 27.2546 4.82288 27.2547 4.80561C27.2657 4.62947 27.5067 4.74316 27.4354 4.48432C27.4327 4.47501 27.2123 4.22031 27.4002 4.3808C27.4139 4.39384 27.4873 4.53179 27.5369 4.50287C27.588 4.47462 27.7865 4.53558 27.741 4.36811C27.7291 4.32618 27.5835 4.09313 27.7547 4.22553C27.7783 4.24438 27.8376 4.31861 27.8787 4.35346C28.0113 4.46462 27.7943 4.20374 28.0086 4.39936C28.2231 4.59508 28.4113 4.7167 28.3367 4.51557C28.3347 4.50956 28.1689 4.29571 28.1903 4.28217C28.2248 4.26115 28.3042 4.26518 28.3338 4.23627C28.3471 4.2221 28.2304 4.11018 28.2264 4.1015C28.2631 3.94228 28.4348 3.98921 28.5848 3.94135C28.61 3.92907 28.5164 3.71334 28.6737 3.81244C28.8476 3.92216 29.3548 4.5704 29.3201 4.34076C29.3061 4.24784 28.6564 3.42807 29.0867 3.76654C29.1316 3.54667 29.4407 3.64015 29.4471 3.3769C29.4469 3.36444 29.272 3.1309 29.2889 3.12104C29.3149 3.10801 29.4166 3.19726 29.4383 3.19135C29.5282 3.16449 29.5093 3.02683 29.5819 2.98529C29.6096 2.97005 29.6955 3.08026 29.7283 3.06147C29.7602 3.0417 29.6559 2.8882 29.7528 2.92084C29.8272 2.9468 30.1084 3.20259 30.1756 3.20209C29.9268 2.92315 29.9576 2.90443 29.9373 2.78998C29.9322 2.76725 29.8371 2.68094 29.8299 2.66498C29.8019 2.59994 29.8899 2.66518 29.8572 2.59662C29.8488 2.57951 29.7646 2.48623 29.7528 2.46674C29.6542 2.30274 29.8913 2.47559 29.9324 2.5058C30.0886 2.61994 29.9917 2.48431 30.0643 2.51947C30.1368 2.55476 30.1658 2.65504 30.2225 2.66498C30.3398 2.68529 30.3965 2.6061 30.4559 2.56049C30.4772 2.5413 30.3543 2.43308 30.3504 2.42377C30.3673 2.35048 30.5343 2.44254 30.3328 2.16791C30.9514 2.79049 30.304 2.08055 30.4862 2.15131C30.501 2.15741 30.7846 2.45863 30.8065 2.5224C30.8274 2.58541 30.7108 2.51696 30.7469 2.61225C30.7581 2.63839 30.977 2.95446 30.9891 2.97846ZM1.53791 1.47553C1.60122 1.37792 1.47022 1.43626 1.39143 1.55756C1.32817 1.65509 1.4591 1.59662 1.53791 1.47553ZM2.74006 1.80658C2.84928 1.63234 2.52278 1.94077 2.47932 2.01166C2.34007 2.24198 2.62977 1.98209 2.74006 1.80658ZM5.74201 5.87494C5.88357 5.74741 5.84493 5.69107 5.7215 5.84565C5.71682 5.85202 5.73603 5.87983 5.74201 5.87494ZM7.37189 7.21088C7.48044 7.09057 7.42443 7.10128 7.33088 7.21869C7.32551 7.22579 7.33831 7.24803 7.37189 7.21088ZM8.14826 8.49701C8.38756 8.29565 8.2964 8.16775 8.10041 8.43061C8.09142 8.44488 8.13573 8.50583 8.14826 8.49701ZM15.3963 16.5488C15.5104 16.7017 15.5693 16.6695 15.4266 16.5322C15.4207 16.5271 15.3931 16.5422 15.3963 16.5488ZM22.6942 8.90619C22.8723 9.16265 23.0078 9.08373 22.7645 8.8642C22.7513 8.85358 22.6857 8.89308 22.6942 8.90619ZM24.0447 8.25385C24.1544 8.37304 24.1478 8.31775 24.0399 8.21381C24.0334 8.20762 24.0107 8.21678 24.0447 8.25385ZM25.5223 6.75873C25.6362 6.91166 25.695 6.87948 25.5526 6.74213C25.5466 6.73705 25.5186 6.75224 25.5223 6.75873ZM29.8446 4.15619C30.0072 4.28054 29.7288 3.92682 29.6629 3.87787C29.4466 3.71767 29.6801 4.03007 29.8446 4.15619ZM30.283 2.99311C30.3741 3.06496 30.3271 2.9295 30.2137 2.83979C30.1224 2.76766 30.1696 2.90335 30.283 2.99311ZM30.9022 2.206C30.778 2.27435 30.2473 1.81091 30.411 1.7685C30.4409 1.76181 30.5169 1.97391 30.5848 1.99799C30.7088 2.04089 30.4464 1.68569 30.6522 1.81733C30.6891 1.84183 30.8966 2.18213 30.9022 2.206Z" fill="url(#paint0_linear_1_6325)"/>
<defs>
<linearGradient id="paint0_linear_1_6325" x1="31" y1="8.96628" x2="0.306158" y2="8.96628" gradientUnits="userSpaceOnUse">
<stop stop-color="#FFC6C2"/>
<stop offset="1" stop-color="#E77A74"/>
</linearGradient>
</defs>
</svg>
