<svg width="18" height="32" viewBox="0 0 18 32" fill="none" xmlns="http://www.w3.org/2000/svg">
<path d="M16.9319 1.21662C16.8146 1.29649 16.2438 0.884892 16.4026 0.826973C16.4321 0.818321 16.5273 1.02052 16.597 1.03791C16.7247 1.06908 16.4304 0.740419 16.6478 0.852364C16.689 0.875565 16.9385 1.21112 16.9329 1.2176L16.9319 1.21662ZM14.8841 31.5096C14.7119 31.5928 15.1657 31.1737 15.1907 31.1473C15.4416 30.8779 15.0892 31.1116 15.0569 31.119C14.9091 31.1528 14.9313 31.0487 14.8196 31.0662C14.7458 31.079 14.4429 31.346 14.431 31.3143C14.3918 31.2081 14.787 30.8021 14.3567 31.0565C14.2647 31.1108 13.949 31.4241 14.1566 31.1346C14.1697 31.1163 14.3686 30.8596 14.1966 30.9705C14.1741 30.9854 14.0793 31.0718 14.0677 31.075C13.9917 31.0948 14.051 31.0083 13.9886 31.0115C13.9256 31.0152 13.8393 31.0288 13.8411 30.9666C13.8424 30.9289 13.9979 30.742 14.0335 30.6922C14.135 30.5512 13.9017 30.7073 14.0394 30.5526C14.1778 30.397 14.4414 30.22 14.5003 30.0858C14.2491 30.3091 13.9892 30.5369 13.7357 30.7606C13.6561 30.6546 13.6496 30.4849 13.5501 30.3963C13.5373 30.3859 13.4147 30.5185 13.3968 30.5115C13.3257 30.4755 13.3771 30.3401 13.2874 30.3172C13.2168 30.3008 13.0317 30.3791 12.9544 30.3651C13.2144 30.0794 13.0553 30.0977 13.0364 30.0242C13.0309 29.9982 13.1078 29.931 13.1214 29.8963C13.1708 29.7669 12.9386 30.0155 12.887 30.0389C12.668 30.1362 13.2343 29.6173 13.1624 29.5643C13.1572 29.5624 12.817 29.7921 12.7913 29.8045C12.6347 29.8789 12.8922 29.7034 12.8939 29.66C12.897 29.5809 12.943 29.4858 12.8099 29.5164C12.7703 29.526 12.5493 29.6625 12.6702 29.5028C12.686 29.482 12.7869 29.3946 12.7923 29.3846C12.842 29.2425 12.5238 29.5257 12.389 29.5916C12.2552 29.6567 12.4302 29.4132 12.4847 29.3465C12.6234 29.1764 12.573 29.3019 12.5892 29.2908C12.7936 29.1356 12.7297 29.1296 12.722 29.0887C13.0285 28.8055 12.9771 28.7857 12.7132 29.0477C12.6846 29.0762 12.7306 29.071 12.722 29.0887C12.3968 29.3397 12.3211 29.3348 12.5648 29.034C12.6792 28.8928 12.8528 28.7721 12.7386 28.7596C12.6865 28.7543 12.4829 28.9572 12.4017 28.9842C12.2168 29.0452 12.3471 28.7908 12.262 28.7586C12.2308 28.7478 12.1332 28.8737 12.1077 28.8699C12.0407 28.8588 12.0961 28.7446 12.0159 28.7449C12.0062 28.7477 11.8928 28.8642 11.8802 28.8533C11.7825 28.7724 11.7869 28.6209 11.7015 28.5213C11.6599 28.4731 11.5153 28.4487 11.4847 28.3875C11.4313 28.2818 11.5151 28.0167 11.4066 27.9832C11.3362 27.9614 11.2229 28.0817 11.1214 28.1365C10.9252 28.2426 11.1507 27.9138 11.1878 27.8631C11.19 27.8617 11.2552 27.8754 11.2982 27.7977C11.4167 27.6682 11.1925 27.8599 11.1878 27.8631C11.2109 27.8307 11.166 27.7251 11.1282 27.7293C11.1064 27.7338 10.9985 27.8395 10.9876 27.8416C10.786 27.8264 10.6588 27.7437 10.6136 27.5848C10.618 27.5776 10.7428 27.4689 10.7454 27.4588C10.7455 27.3431 10.5502 27.445 10.4085 27.4774C10.2671 27.5095 10.2618 27.4396 10.4564 27.2078C10.3926 27.1934 10.4388 27.0475 10.4691 26.9608C10.4993 26.8741 10.2423 27.0978 10.2347 27.0994C9.99443 27.1532 10.0907 26.9709 10.0296 26.8572C10.0007 26.8028 9.88473 26.7466 9.81378 26.7235C9.75776 26.7054 9.79586 26.6298 9.72686 26.6287C9.71765 26.6286 9.61182 26.7322 9.60382 26.7371C9.43419 26.8193 9.72559 26.5905 9.76788 26.5379C9.91973 26.3482 9.99787 26.244 9.86944 26.2694C9.83718 26.2773 9.41239 26.5986 9.37042 26.5985C9.31937 26.5961 9.46732 26.4799 9.40753 26.4822C9.39775 26.4871 9.31629 26.5603 9.30401 26.5408C9.24698 26.4437 9.21667 26.3075 9.13116 26.2303C9.11625 26.2247 8.99647 26.3579 8.97686 26.3465C8.88926 26.2824 8.81618 26.191 8.81182 26.0555C8.81178 26.0216 8.91839 25.946 8.94366 25.9158C9.09546 25.7333 8.80929 25.9262 8.79913 25.9246C8.55115 25.8933 8.68267 25.5792 8.44464 25.534C8.42665 25.5348 8.10715 25.7157 8.31475 25.4803C8.33016 25.4627 8.54138 25.2234 8.35772 25.3465C8.34358 25.3576 8.23844 25.4803 8.22491 25.4412C8.21126 25.4012 8.0881 25.4282 8.18682 25.2674C8.21804 25.2165 8.42947 24.9721 8.20636 25.1053C8.18929 25.1159 7.70957 25.4431 7.98663 25.1561C8.03252 25.1087 8.3489 24.831 8.14874 24.9305C8.10999 24.95 8.0533 25.0276 7.98956 25.0447C7.89157 25.0706 7.93351 24.9499 7.75616 25.033C7.72478 25.0479 7.48383 25.2085 7.62237 25.0379C7.6441 25.0112 7.75396 24.9243 7.75421 24.9002C7.75313 24.7864 7.62477 24.7825 7.63897 24.6531C7.64453 24.6071 7.82312 24.4657 7.84698 24.4012C7.87058 24.3367 7.87084 24.2504 7.77179 24.2947C7.67204 24.3396 7.42662 24.6094 7.3714 24.5916C7.13198 24.5139 7.14433 24.2117 7.02179 24.0291C7.00331 24.0029 6.92554 24.1085 6.8919 24.075C6.76724 23.9511 6.47474 23.8073 6.57745 23.5096C6.65982 23.2716 6.88667 23.2721 6.8919 23.1434C6.89363 23.0817 6.55281 23.3232 6.53057 23.3279C6.35971 23.3393 6.44815 23.1596 6.3421 23.1268C6.32 23.1202 6.20516 23.249 6.1878 23.242C6.12789 23.219 6.14392 23.1229 6.09698 23.0916C6.07511 23.0789 5.98313 23.1679 5.97491 23.1453C5.95549 23.09 5.96336 23.0173 6.01886 22.8963C6.02635 22.884 6.16597 22.7999 6.14386 22.7664C6.10803 22.7117 6.14284 22.5718 6.00128 22.5994C5.95828 22.6085 5.73654 22.8078 5.85772 22.6346C5.88382 22.5978 6.15664 22.3681 5.88995 22.534C5.84434 22.5622 5.47411 22.7719 5.64288 22.5584C5.68725 22.5023 5.88279 22.2849 5.83331 22.2938C5.82545 22.296 5.71548 22.4133 5.68878 22.408C5.59799 22.3853 5.55584 22.3126 5.46515 22.2869C5.44026 22.2816 5.33993 22.4138 5.30694 22.4022C5.2174 22.3654 5.1752 22.2562 5.15655 22.158C5.15008 22.1216 5.26687 22.0458 5.27667 22.034C5.43123 21.8455 5.17739 22.044 5.15167 22.0506C5.01579 22.0708 5.0906 21.9253 5.01397 21.9002C4.99296 21.8931 4.88532 22.008 4.87237 22.0145C4.74494 22.0758 4.97227 21.9111 4.97979 21.8709C4.99756 21.7595 4.93423 21.7086 4.8714 21.6688C4.84692 21.6568 4.73333 21.7973 4.71417 21.783C4.59766 21.7002 4.51344 21.5808 4.4964 21.4129C4.49411 21.3808 4.60815 21.2985 4.62823 21.2733C4.7675 21.0985 4.51107 21.2588 4.47784 21.2713C4.34186 21.3179 4.4173 21.2191 4.36749 21.1971C4.11874 21.0927 3.97732 20.8132 3.86065 20.6082C3.70825 20.3418 3.6501 20.0799 3.43292 19.8904C3.41684 19.882 3.29522 20.0146 3.28057 20.0076C3.11187 19.8872 3.03144 19.6907 2.85577 19.576C2.84014 19.5688 2.72799 19.7005 2.7005 19.6903C2.64391 19.6675 2.60399 19.6089 2.6087 19.5301C2.6125 19.4917 2.74699 19.4179 2.74737 19.3817C2.74696 19.2971 2.71093 19.2383 2.64679 19.2088C2.61902 19.1965 2.51228 19.3474 2.48663 19.3221C2.30934 19.1521 2.12565 18.9941 2.13311 18.6541C2.13424 18.6303 2.39489 18.3742 2.31866 18.3944C2.24136 18.4604 2.15206 18.5413 2.07061 18.6131C1.7883 18.3871 1.64621 18.0386 1.4212 17.7596C1.40848 17.7527 1.28555 17.8962 1.26593 17.8758C1.15487 17.7484 1.00507 17.6616 1.03253 17.4041C1.03707 17.3773 1.29378 17.1578 1.22296 17.1541C1.21001 17.1538 1.12513 17.1273 1.05694 17.1619C1.04687 17.1674 0.937616 17.2847 0.917294 17.2703C0.803885 17.1806 0.730371 17.0447 0.707333 16.8738C0.704695 16.8459 0.846046 16.7506 0.846004 16.7293C0.834879 16.5833 0.654942 16.5753 0.694637 16.3904C0.722021 16.2658 0.958582 16.0888 1.14679 15.866C1.16756 15.8411 1.15743 15.813 1.21319 15.7449C1.16797 15.7044 1.12134 15.6605 1.09991 15.6297C1.05941 15.5712 1.17569 15.6542 1.13311 15.5799C1.08885 15.5041 0.938557 15.3807 0.956356 15.327C0.999676 15.2034 1.14721 15.1251 1.28448 15.0887C1.32738 15.0771 1.39295 15.1627 1.42608 15.158C1.49044 15.1485 1.48453 15.0799 1.55401 15.076C1.57751 15.0751 1.68664 15.2023 1.70929 15.2C1.82842 15.1801 1.85896 15.084 1.9505 15.0369C1.98814 15.0177 2.02535 14.9976 2.06182 14.9774C2.13046 14.9158 2.2001 14.8555 2.2669 14.7928C2.33768 14.7264 2.21992 14.7507 2.41827 14.6209C2.43203 14.6123 2.51903 14.5925 2.58526 14.5477C2.63125 14.5165 2.75004 14.3918 2.8128 14.3563C2.87434 14.3218 2.78062 14.429 2.8587 14.3934C2.92569 14.3622 3.03385 14.261 3.09698 14.243C3.11448 14.2291 3.13214 14.2149 3.14972 14.201C3.27597 14.1012 3.5182 14.0612 3.58038 13.8953C3.58529 13.8748 3.47185 13.7853 3.46515 13.7742C3.36709 13.6062 3.57384 13.8218 3.62823 13.8211C3.84308 13.8175 3.96508 13.7047 4.01983 13.5613C4.04058 13.4996 3.78699 13.3474 3.94757 13.4129C3.95859 13.4173 4.0634 13.5345 4.08722 13.534C4.1403 13.5316 4.16867 13.4604 4.19757 13.4471C4.25366 13.4224 4.25882 13.4138 4.2962 13.3758C4.34845 13.3249 4.46355 13.3135 4.49054 13.2322C4.49428 13.2138 4.36454 13.1229 4.36163 13.0848C4.35963 13.0467 4.41828 13.0034 4.46222 13.0115C4.50631 13.0205 4.59142 13.1131 4.61554 13.1297C4.81764 13.2687 4.62587 12.9807 4.62628 12.9666C4.65126 12.7296 4.90348 12.7388 5.02472 12.6063C5.11643 12.5054 5.16872 12.355 5.263 12.2654C5.37575 12.1593 5.52876 12.1222 5.61944 12.0018C5.62908 11.9893 5.47938 11.8761 5.48858 11.8592C5.61174 11.693 5.76595 11.5564 5.99835 11.492C6.022 11.4863 6.12548 11.6166 6.15655 11.618C6.34201 11.6179 6.71611 11.692 6.23663 11.1492C6.31489 11.1058 6.40656 11.0503 6.56475 11.0926C6.66663 11.1199 6.76768 11.2761 6.75225 11.1805C6.74844 11.1587 6.61968 11.0642 6.62335 11.0399C6.63911 10.9378 6.74107 10.9036 6.73858 10.786C6.7378 10.7618 6.63064 10.6696 6.61456 10.6483C6.49106 10.4786 6.78836 10.659 6.81671 10.6649C7.02923 10.7063 7.03196 10.5961 7.10675 10.5213C7.12422 10.504 6.96507 10.3961 6.97686 10.3748C7.03989 10.2663 7.13826 10.1833 7.28155 10.1522C7.31393 10.1465 7.41545 10.2721 7.4378 10.2762C7.5299 10.2849 7.31569 10.0697 7.39972 10.074C7.41835 10.0763 7.51423 10.1727 7.52765 10.1824C7.72202 10.318 7.50299 10.0794 7.49542 10.0604C7.49184 9.91341 7.79789 10.1018 7.83038 9.99299C7.83195 9.97866 7.68677 9.88136 7.7044 9.85139C7.82373 9.6503 8.023 9.50497 8.2796 9.43342C8.31934 9.42229 8.39991 9.52946 8.41339 9.53889C8.62353 9.68343 8.39066 9.43783 8.388 9.41975C8.38164 9.29081 8.64913 9.42095 8.39288 9.10139C8.7555 8.91422 8.8472 8.48021 9.3714 8.44611C9.38012 8.44811 9.49343 8.56311 9.50714 8.5633C9.655 8.54155 9.44909 8.38128 9.2669 8.1092C9.22118 8.04078 9.54439 8.25801 9.56866 8.27326C9.65815 8.33021 9.82695 8.51336 9.846 8.52229C9.99756 8.59036 9.38703 8.03829 9.4339 7.98518C9.43982 7.98821 9.53959 8.09283 9.55597 8.10041C9.60335 8.11888 9.57265 8.06468 9.62335 8.08674C9.74079 8.13873 10.0446 8.39718 9.91632 8.19318C9.89773 8.16536 9.54754 7.86001 9.60577 7.82795C9.62966 7.81559 9.69993 7.72795 9.74347 7.72541C9.78655 7.72336 9.88068 7.8382 9.88897 7.84357C10.0927 7.91648 10.1326 7.99615 10.3782 8.16486C10.6216 8.33167 10.1004 7.86749 10.053 7.80061C10.0083 7.73583 10.1703 7.80036 10.223 7.82795C10.2751 7.85565 10.3326 7.93389 10.3655 7.94611C10.5817 8.02341 10.1364 7.68186 10.0745 7.58479C9.9283 7.35575 10.3455 7.66636 10.4271 7.6551C10.4487 7.65168 10.353 7.58229 10.3548 7.5633C10.365 7.49015 10.5091 7.57227 10.4466 7.42072C10.4344 7.39359 10.2449 7.1455 10.4368 7.27326C10.4646 7.29196 10.5501 7.38909 10.5892 7.39045C10.6474 7.39147 10.7159 7.35859 10.7122 7.29865C10.7083 7.25401 10.5291 7.13673 10.6038 7.15314C10.6373 7.16116 10.7071 7.26678 10.762 7.27424C10.8168 7.28121 10.8689 7.21827 10.887 7.19221C10.9049 7.16628 10.7742 7.06864 10.7679 7.05939C10.7328 7.00654 10.7159 6.91125 10.7191 6.9051C10.8853 6.69592 11.252 6.69887 11.3616 6.44709C11.3687 6.42658 11.2366 6.32137 11.2366 6.31721C11.2324 6.21926 11.5286 6.56569 11.6732 6.63264C11.4137 6.40335 11.4783 6.42482 11.4837 6.36311C11.486 6.33339 11.38 6.25324 11.3694 6.24104C11.2439 6.07773 11.4545 6.23754 11.4983 6.26936C11.6588 6.38552 11.5051 6.20943 11.6126 6.28693C11.7195 6.36415 11.8379 6.52197 11.8685 6.48713C11.7863 6.39352 11.5242 6.19973 11.5091 6.13752C11.4544 5.90368 11.8124 5.88986 11.9056 5.82795C11.9984 5.76611 12.0066 5.7249 12.0823 5.70881C12.2169 5.67939 12.0133 5.54783 11.9798 5.4217C11.947 5.295 12.3583 5.71947 12.4593 5.79865C12.5595 5.87728 12.4713 5.78148 12.5306 5.81916C12.5903 5.85737 12.636 5.93612 12.6751 5.93244C12.7142 5.92865 12.6019 5.71575 12.511 5.61799C12.3187 5.41125 12.0768 5.23843 12.2054 5.25178C12.2134 5.25325 12.3175 5.36704 12.3411 5.36604C12.5206 5.34745 12.622 5.24917 12.7913 5.2215C12.8157 5.21974 12.929 5.34501 12.9456 5.3465C13.1024 5.33829 12.8608 5.17076 12.6644 4.90607C12.9712 5.20733 13.1886 5.36093 13.2493 5.30158C13.2853 5.26499 13.142 5.14331 13.0667 5.02912C13.044 4.99467 13.1626 5.05494 13.1019 4.99006C12.9035 4.77794 12.6425 4.58368 12.7972 4.60627C12.8068 4.6106 12.911 4.72124 12.928 4.71955C13.0326 4.6986 12.8184 4.48717 12.8538 4.39338C12.8825 4.32031 13.1062 4.34825 13.1849 4.30744C13.5403 4.63709 13.5125 4.50447 13.2884 4.25471C13.3346 4.22417 13.3602 4.16923 13.429 4.16193C13.4526 4.15939 13.5472 4.26154 13.5608 4.27131C13.7577 4.40564 13.5405 4.17281 13.5355 4.15217C13.53 3.97536 13.7798 4.06564 13.6849 3.81428C13.6774 3.80156 13.4408 3.57299 13.6419 3.71467C13.6572 3.72719 13.7417 3.85645 13.7884 3.82307C13.8364 3.78988 14.0401 3.83304 13.9788 3.66975C13.9636 3.62969 13.7967 3.41021 13.9798 3.52619C14.0049 3.54246 14.0721 3.61055 14.1165 3.64143C14.2588 3.7397 14.0177 3.49986 14.2493 3.67463C14.4813 3.84974 14.6802 3.95331 14.5872 3.75959C14.5784 3.74731 14.4016 3.5587 14.4192 3.54182C14.4517 3.51757 14.5309 3.51371 14.5579 3.48225C14.5708 3.46692 14.4387 3.36187 14.4388 3.35725C14.4609 3.19552 14.6366 3.22667 14.7816 3.16486C14.8063 3.15115 14.6917 2.9442 14.8577 3.02814C15.0411 3.12084 15.6081 3.71923 15.5521 3.49299C15.5296 3.40168 14.8056 2.64624 15.2659 2.94318C15.2902 2.71954 15.6068 2.78328 15.5892 2.52033C15.5846 2.50478 15.3946 2.29492 15.4075 2.28107C15.4316 2.26448 15.5434 2.3456 15.5638 2.33674C15.6513 2.3016 15.619 2.16523 15.6878 2.11701C15.7143 2.09962 15.8102 2.20148 15.8411 2.17951C15.8704 2.15629 15.7533 2.01348 15.8528 2.03693C15.9302 2.05668 16.2323 2.284 16.2991 2.27717C16.0256 2.0227 16.0545 2.00154 16.0237 1.88947C16.0165 1.86726 15.9139 1.78929 15.9056 1.77424C15.8722 1.7126 15.9646 1.7697 15.9261 1.7049C15.9168 1.68915 15.8228 1.60157 15.8099 1.58381C15.6975 1.43059 15.9478 1.57953 15.9925 1.60627C16.1589 1.70548 16.0499 1.5802 16.1253 1.60822C16.2009 1.6365 16.2397 1.73354 16.2972 1.73811C16.4156 1.7471 16.465 1.66317 16.5198 1.61213C16.5401 1.59119 16.4056 1.49352 16.4017 1.48518C16.4117 1.4105 16.5875 1.48674 16.3616 1.23225C17.0347 1.7938 16.3253 1.14867 16.512 1.201C16.5272 1.2055 16.8382 1.4795 16.8655 1.54084C16.8921 1.60162 16.77 1.544 16.8148 1.63557C16.8276 1.65976 17.0757 1.9553 17.0901 1.97834C17.1878 2.14099 16.7287 1.72896 16.7005 1.70686C16.4091 1.48226 16.6745 1.80894 16.6858 1.84162C16.7333 1.98591 16.6259 1.97414 16.6536 2.08381C16.6727 2.15594 16.9674 2.43315 16.9368 2.44807C16.8344 2.49699 16.3933 2.14137 16.6868 2.5467C16.7495 2.63338 17.0909 2.91815 16.7825 2.73811C16.7621 2.72613 16.4894 2.55304 16.6155 2.71369C16.6317 2.73414 16.7273 2.82138 16.7317 2.83283C16.7584 2.90669 16.6666 2.85527 16.6761 2.91779C16.6855 2.98035 16.7065 3.06541 16.6439 3.06916C16.6054 3.07075 16.4056 2.93391 16.3528 2.90314C16.2034 2.81567 16.381 3.03255 16.2142 2.90998C16.0465 2.78683 15.8456 2.54134 15.7064 2.49494C15.952 2.72417 16.2024 2.96264 16.4485 3.19416C16.3502 3.28327 16.182 3.30547 16.1028 3.41291C16.0942 3.42703 16.2376 3.53781 16.2308 3.55549C16.2008 3.62866 16.0629 3.59042 16.0482 3.68147C16.0379 3.75304 16.1327 3.92988 16.1263 4.00861C15.8183 3.77702 15.8507 3.93268 15.7796 3.95881C15.7546 3.96784 15.6799 3.89691 15.6439 3.88654C15.5105 3.84958 15.7798 4.05793 15.8079 4.10725C15.9247 4.31583 15.3559 3.80207 15.3089 3.87775C15.3131 3.88961 15.5677 4.19899 15.5833 4.22443C15.6717 4.37326 15.4724 4.13418 15.429 4.13654C15.3498 4.14083 15.2511 4.10383 15.2942 4.2342C15.3079 4.27337 15.463 4.4789 15.2933 4.37385C15.2709 4.36 15.1723 4.26634 15.1634 4.2635C15.0178 4.22772 15.3294 4.51718 15.4075 4.64533C15.4854 4.77324 15.2262 4.6221 15.1546 4.57404C14.972 4.45178 15.1011 4.49022 15.0892 4.47541C14.9154 4.28601 14.9154 4.34958 14.8753 4.36115C14.5649 4.08242 14.5496 4.13634 14.8353 4.37482C14.8662 4.4005 14.8572 4.35462 14.8753 4.36115C15.1555 4.66168 15.1577 4.73786 14.8353 4.52326C14.6841 4.42259 14.5484 4.26116 14.5462 4.3758C14.5456 4.42814 14.7668 4.61185 14.8011 4.69025C14.8793 4.86922 14.6134 4.76339 14.5892 4.85139C14.5811 4.8836 14.7151 4.96939 14.7132 4.99494C14.7079 5.06251 14.5898 5.01817 14.598 5.09846C14.6034 5.10917 14.7277 5.20904 14.7181 5.22248C14.6463 5.32793 14.4941 5.33754 14.4026 5.43244C14.3587 5.47853 14.3481 5.62331 14.2903 5.65998C14.1901 5.72349 13.9183 5.66571 13.8948 5.77717C13.8794 5.84934 14.0095 5.95065 14.0735 6.0467C14.1972 6.23208 13.8502 6.0394 13.7952 6.00666C13.7935 6.00559 13.8012 5.93792 13.7191 5.90217C13.5787 5.79604 13.7951 6.00569 13.7952 6.00666C13.7609 5.98631 13.6589 6.04155 13.6673 6.07893C13.6741 6.10045 13.7883 6.19726 13.7913 6.20783C13.7947 6.41041 13.7242 6.54625 13.5696 6.60627C13.5614 6.60186 13.4398 6.48519 13.4319 6.48615C13.3167 6.49701 13.4364 6.68102 13.4817 6.81916C13.5269 6.95734 13.4565 6.97086 13.2073 6.79865C13.1984 6.86318 13.0503 6.83032 12.9612 6.80842C12.8721 6.78649 13.1181 7.0217 13.1204 7.02912C13.196 7.26362 13.0053 7.18451 12.8978 7.25666C12.8463 7.29075 12.8021 7.41039 12.7855 7.48322C12.7728 7.54123 12.693 7.51063 12.6985 7.5799C12.7021 7.59131 12.8148 7.68689 12.8177 7.69221C12.9151 7.85351 12.6601 7.58477 12.6038 7.54768C12.4007 7.41417 12.2904 7.34498 12.3275 7.47053C12.336 7.49953 12.6978 7.89533 12.7015 7.93732C12.7041 7.98888 12.5745 7.85151 12.5823 7.91096C12.5872 7.91953 12.6683 7.99454 12.6497 8.00861C12.5581 8.07478 12.426 8.11812 12.3567 8.21076C12.3507 8.22521 12.4973 8.33459 12.4857 8.35432C12.4299 8.44747 12.3455 8.52851 12.2112 8.54572C12.1774 8.54843 12.0922 8.45002 12.0599 8.42756C11.8641 8.29351 12.0823 8.55915 12.0823 8.57014C12.0742 8.82085 11.7489 8.71885 11.7259 8.96076C11.7263 8.97597 11.9379 9.28115 11.6829 9.09553C11.6625 9.08073 11.407 8.89435 11.5462 9.06525C11.5594 9.07884 11.6901 9.17118 11.6526 9.1883C11.6139 9.20555 11.6523 9.32637 11.4827 9.24299C11.4291 9.21662 11.1663 9.02926 11.3196 9.23908C11.3351 9.25904 11.7005 9.7003 11.3909 9.45295C11.3395 9.41171 11.032 9.123 11.1497 9.3133C11.1728 9.35019 11.2569 9.39861 11.2796 9.46076C11.3146 9.55623 11.1891 9.52595 11.2884 9.69514C11.3069 9.72598 11.4885 9.9488 11.306 9.82697C11.2772 9.80771 11.1805 9.70649 11.1566 9.70881C11.0431 9.7206 11.0515 9.84941 10.9212 9.84748C10.8752 9.84693 10.7184 9.68096 10.6517 9.66291C10.5851 9.64525 10.4975 9.6539 10.5511 9.74885C10.6049 9.84392 10.8956 10.0618 10.8841 10.119C10.8288 10.3651 10.5267 10.3811 10.3558 10.5203C10.3304 10.541 10.4428 10.6095 10.4124 10.6463C10.3005 10.7825 10.1841 11.0877 9.87823 11.0135C9.63335 10.9537 9.61282 10.7277 9.4837 10.7352C9.42397 10.7409 9.69491 11.0555 9.70147 11.077C9.72854 11.2464 9.54167 11.175 9.51886 11.284C9.51423 11.3065 9.65222 11.4082 9.64776 11.4266C9.63037 11.4884 9.53326 11.4816 9.50616 11.5311C9.49515 11.554 9.59262 11.639 9.57061 11.6492C9.51741 11.6735 9.44455 11.6713 9.31964 11.6278C9.30818 11.6238 9.20983 11.4906 9.17804 11.5154C9.12686 11.5565 8.98369 11.5345 9.02472 11.6737C9.03778 11.7157 9.25624 11.9177 9.07257 11.8133C9.03407 11.7914 8.77914 11.5396 8.96905 11.7899C9.00058 11.8316 9.24464 12.1833 9.01593 12.035C8.95578 11.996 8.72033 11.8205 8.73468 11.8699C8.73763 11.8776 8.86428 11.9755 8.86163 12.0028C8.84737 12.0952 8.77948 12.1438 8.76202 12.2362C8.75766 12.2611 8.90156 12.3507 8.8919 12.3846C8.86346 12.4774 8.75759 12.5286 8.66143 12.5565C8.62593 12.5662 8.54024 12.4599 8.52667 12.45C8.32313 12.3128 8.54921 12.5511 8.55499 12.5731C8.58722 12.7061 8.43516 12.6446 8.41729 12.7235C8.4122 12.7448 8.53379 12.8391 8.54425 12.8533C8.61718 12.9747 8.43292 12.7646 8.3919 12.7606C8.27923 12.7534 8.23442 12.8211 8.2005 12.8875C8.19092 12.913 8.34029 13.0123 8.32843 13.033C8.25656 13.157 8.14574 13.2531 7.97979 13.286C7.94823 13.2916 7.85681 13.185 7.8294 13.1668C7.64109 13.0435 7.82491 13.2877 7.83917 13.3182C7.89826 13.4497 7.79264 13.3829 7.77569 13.4354C7.69422 13.6927 7.43006 13.8595 7.23663 13.9949C6.98493 14.1722 6.72883 14.2546 6.55987 14.4891C6.55204 14.5054 6.69627 14.6143 6.69073 14.6297C6.58626 14.8093 6.39742 14.9077 6.29913 15.0936C6.29219 15.1092 6.43491 15.2097 6.42706 15.2381C6.40953 15.2966 6.35567 15.3418 6.27667 15.3446C6.23817 15.3453 6.15171 15.2169 6.11554 15.2205C6.03095 15.2289 5.97584 15.2707 5.95245 15.3377C5.94328 15.3667 6.10326 15.4582 6.08038 15.4862C5.92719 15.679 5.7863 15.8776 5.44659 15.9022C5.42174 15.9023 5.1441 15.667 5.1712 15.741C5.24409 15.8118 5.33243 15.8932 5.41143 15.9676C5.21216 16.2703 4.87782 16.4446 4.62042 16.6951C4.61421 16.7083 4.77021 16.8187 4.7503 16.8397C4.64509 16.9502 4.57562 17.0881 4.37335 17.1121C4.3831 17.2818 4.4738 17.3898 4.59405 17.449C4.65311 17.4767 4.82913 17.2369 4.74835 17.3914C4.74284 17.4021 4.61739 17.4956 4.61554 17.5194C4.61307 17.5721 4.6799 17.6067 4.69073 17.6365C4.71005 17.6949 4.71796 17.7013 4.75225 17.742C4.79807 17.7986 4.79872 17.9148 4.87725 17.949C4.89491 17.955 4.99812 17.8334 5.03643 17.8338C5.07441 17.8355 5.11105 17.8964 5.09893 17.9393C5.08645 17.9821 4.98746 18.058 4.96807 18.0809C4.80995 18.2699 5.11599 18.1051 5.12921 18.1072C5.36227 18.1539 5.32948 18.4042 5.44952 18.5369C5.54115 18.6372 5.68579 18.7028 5.76593 18.8045C5.86089 18.9263 5.88426 19.0821 5.99542 19.1834C6.00914 19.1912 6.13538 19.0544 6.14972 19.0672C6.30308 19.2047 6.42389 19.3698 6.46612 19.6063C6.47023 19.6301 6.32875 19.7223 6.3255 19.7528C6.3082 19.9371 6.19921 20.3022 6.78448 19.8748C6.82039 19.9567 6.86697 20.0532 6.80987 20.2069C6.77317 20.3057 6.60894 20.3911 6.70538 20.3846C6.72803 20.3818 6.8328 20.2649 6.85675 20.2703C6.95689 20.2953 6.98183 20.3986 7.09893 20.4071C7.12353 20.4078 7.22517 20.3102 7.24737 20.2967C7.42737 20.1896 7.22059 20.4672 7.21124 20.4959C7.14986 20.7037 7.26004 20.7175 7.32745 20.7987C7.3441 20.8156 7.46417 20.6699 7.48468 20.6824C7.5868 20.7551 7.65949 20.8603 7.67706 21.0057C7.68039 21.0384 7.54382 21.1291 7.53936 21.1502C7.52188 21.2413 7.75617 21.0469 7.74347 21.1307C7.73952 21.149 7.63522 21.2354 7.62432 21.2479C7.47135 21.4286 7.73016 21.2327 7.74932 21.2274C7.89576 21.2373 7.67958 21.5238 7.78448 21.5662C7.79827 21.5696 7.90972 21.4333 7.9378 21.4539C8.12643 21.591 8.25213 21.8027 8.29913 22.0643C8.30642 22.1048 8.19174 22.1747 8.18097 22.1873C8.01765 22.3828 8.28306 22.1743 8.30206 22.1727C8.43102 22.178 8.27591 22.4321 8.61749 22.2069C8.76926 22.5852 9.19355 22.7162 9.17804 23.241C9.17403 23.2504 9.04983 23.352 9.04913 23.3651C9.05685 23.5141 9.23493 23.3231 9.52276 23.1668C9.59461 23.1281 9.34972 23.4281 9.33136 23.452C9.26658 23.5357 9.0686 23.6877 9.05792 23.7059C8.976 23.8503 9.58076 23.2943 9.63018 23.3446C9.63065 23.3471 9.51339 23.4417 9.50518 23.4569C9.48254 23.5021 9.5387 23.4759 9.51202 23.5242C9.44945 23.6361 9.163 23.9138 9.37725 23.8055C9.40507 23.7912 9.74451 23.4698 9.77081 23.5311C9.78169 23.5564 9.86082 23.6333 9.85968 23.6766C9.85744 23.7202 9.73217 23.8053 9.72882 23.8113C9.63718 24.0071 9.55444 24.0396 9.36358 24.2684C9.17498 24.4949 9.68393 24.0187 9.75518 23.9774C9.82431 23.9383 9.74452 24.0948 9.71222 24.1444C9.67977 24.1937 9.59658 24.2436 9.58136 24.2752C9.48434 24.4829 9.86573 24.071 9.96808 24.0184C10.2101 23.8937 9.86083 24.2828 9.86554 24.3641C9.86854 24.3833 9.9459 24.2957 9.96417 24.2996C10.0348 24.3171 9.93996 24.4522 10.096 24.4041C10.1216 24.3963 10.3903 24.228 10.2444 24.408C10.2232 24.434 10.1185 24.51 10.1136 24.5487C10.1071 24.6065 10.1328 24.6766 10.1927 24.6785C10.2373 24.6792 10.3713 24.5119 10.348 24.5848C10.337 24.6173 10.2247 24.6773 10.2122 24.7313C10.2003 24.7853 10.2585 24.8428 10.2825 24.8631C10.3064 24.883 10.4134 24.7644 10.4251 24.7567C10.4803 24.7269 10.5754 24.7182 10.5833 24.7215C10.7761 24.9059 10.7384 25.2711 10.9788 25.4031C10.9983 25.4124 11.1151 25.2897 11.1194 25.2899C11.2179 25.2943 10.8443 25.5574 10.764 25.6951C11.0165 25.4581 10.9902 25.521 11.0511 25.5321C11.0808 25.5364 11.17 25.4396 11.1829 25.4305C11.3576 25.3202 11.1787 25.5148 11.1429 25.5555C11.012 25.7046 11.2015 25.5672 11.1146 25.6668C11.0276 25.7664 10.8589 25.8708 10.8919 25.9041C10.9928 25.8309 11.2095 25.5882 11.2728 25.5789C11.5103 25.546 11.4906 25.9021 11.5433 26.0008C11.596 26.0986 11.636 26.1106 11.6448 26.1873C11.6612 26.3246 11.812 26.1336 11.9407 26.1121C12.0696 26.0913 11.6076 26.4618 11.5198 26.5545C11.4323 26.6468 11.5368 26.5681 11.4935 26.6238C11.4499 26.6797 11.3677 26.7175 11.3675 26.7567C11.3683 26.7953 11.589 26.7041 11.6946 26.6229C11.9186 26.4505 12.1137 26.2255 12.0882 26.3524C12.083 26.3622 11.962 26.4533 11.9612 26.4764C11.9628 26.6565 12.0511 26.7657 12.0628 26.9363C12.0642 26.96 11.9248 27.0648 11.9241 27.0799C11.9177 27.2362 12.1074 27.0117 12.389 26.8406C12.0593 27.1192 11.8855 27.3215 11.9407 27.3865C11.974 27.4252 12.1082 27.2926 12.2288 27.2283C12.2647 27.2095 12.1946 27.3219 12.264 27.2684C12.4936 27.0906 12.7112 26.8481 12.6741 26.9998C12.6673 27.0102 12.5476 27.1038 12.5491 27.1199C12.5606 27.2253 12.7916 27.0306 12.8812 27.075C12.9512 27.1101 12.9017 27.33 12.9349 27.4119C12.5734 27.7353 12.7082 27.7195 12.9778 27.5194C13.0038 27.5686 13.0573 27.6001 13.0579 27.6697C13.0564 27.6943 12.9468 27.7772 12.9358 27.7899C12.7823 27.975 13.0397 27.7751 13.0569 27.7752C13.2331 27.7862 13.1194 28.0272 13.3782 27.9559C13.3875 27.9532 13.6422 27.7328 13.4817 27.9207C13.4687 27.9344 13.3308 28.0078 13.3597 28.0574C13.3879 28.1085 13.327 28.307 13.4944 28.2615C13.5364 28.2496 13.7694 28.104 13.637 28.2752C13.6182 28.2988 13.5439 28.3581 13.5091 28.3992C13.3979 28.5318 13.6588 28.3148 13.4632 28.5291C13.2675 28.7436 13.1459 28.9318 13.347 28.8572C13.353 28.8552 13.5668 28.6894 13.5804 28.7108C13.6014 28.7454 13.5974 28.8247 13.6263 28.8543C13.6405 28.8676 13.7524 28.751 13.761 28.7469C13.9203 28.7836 13.8733 28.9554 13.9212 29.1053C13.9335 29.1305 14.1492 29.0369 14.0501 29.1942C13.9404 29.3681 13.2922 29.8753 13.5218 29.8406C13.6147 29.8267 14.4345 29.1769 14.096 29.6072C14.3159 29.6521 14.2224 29.9612 14.4857 29.9676C14.4981 29.9674 14.7317 29.7925 14.7415 29.8094C14.7545 29.8354 14.6653 29.9371 14.6712 29.9588C14.6981 30.0487 14.8357 30.0298 14.8773 30.1024C14.8925 30.1301 14.7823 30.216 14.8011 30.2488C14.8209 30.2808 14.9743 30.1764 14.9417 30.2733C14.9158 30.3477 14.66 30.6289 14.6605 30.6961C14.9394 30.4473 14.9581 30.4782 15.0726 30.4578C15.0953 30.4527 15.1816 30.3576 15.1976 30.3504C15.2626 30.3224 15.1974 30.4104 15.2659 30.3778C15.283 30.3693 15.3763 30.2852 15.3958 30.2733C15.5598 30.1747 15.387 30.4118 15.3567 30.4529C15.2426 30.6091 15.3782 30.5122 15.3431 30.5848C15.3078 30.6573 15.2075 30.6863 15.1976 30.743C15.1773 30.8603 15.2565 30.917 15.3021 30.9764C15.3213 30.9977 15.4295 30.8748 15.4388 30.8709C15.5121 30.8878 15.42 31.0549 15.6946 30.8533C15.0721 31.4719 15.782 30.8245 15.7112 31.0067C15.7051 31.0215 15.4039 31.3051 15.3401 31.327C15.2771 31.3479 15.3456 31.2313 15.2503 31.2674C15.2242 31.2786 14.9081 31.4975 14.8841 31.5096ZM16.387 2.05842C16.4846 2.12173 16.4263 1.99072 16.305 1.91193C16.2075 1.84868 16.2659 1.97961 16.387 2.05842ZM16.056 3.26057C16.2302 3.36979 15.9218 3.04329 15.8509 2.99982C15.6206 2.86058 15.8805 3.15028 16.056 3.26057ZM11.9876 6.26252C12.1151 6.40407 12.1715 6.36544 12.0169 6.24201C12.0105 6.23733 11.9827 6.25653 11.9876 6.26252ZM10.6517 7.8924C10.772 8.00095 10.7613 7.94493 10.6439 7.85139C10.6368 7.84602 10.6145 7.85882 10.6517 7.8924ZM9.36554 8.66877C9.5669 8.90807 9.6948 8.81691 9.43194 8.62092C9.41767 8.61193 9.35672 8.65624 9.36554 8.66877ZM1.31378 15.9168C1.16087 16.0309 1.19309 16.0898 1.33038 15.9471C1.33543 15.9412 1.32035 15.9136 1.31378 15.9168ZM8.95636 23.2147C8.6999 23.3928 8.77882 23.5283 8.99835 23.285C9.00897 23.2718 8.96947 23.2062 8.95636 23.2147ZM9.6087 24.5653C9.48951 24.6749 9.5448 24.6683 9.64874 24.5604C9.65493 24.5539 9.64577 24.5312 9.6087 24.5653ZM11.1038 26.0428C10.9509 26.1567 10.9831 26.2155 11.1204 26.0731C11.1255 26.0671 11.1103 26.0391 11.1038 26.0428ZM13.7064 30.3651C13.582 30.5277 13.9357 30.2493 13.9847 30.1834C14.1449 29.9671 13.8325 30.2006 13.7064 30.3651ZM14.8694 30.8035C14.7976 30.8946 14.9331 30.8476 15.0228 30.7342C15.0949 30.6429 14.9592 30.6901 14.8694 30.8035ZM15.6566 31.4227C15.5882 31.2986 16.0516 30.7678 16.0941 30.9315C16.1007 30.9614 15.8886 31.0374 15.8646 31.1053C15.8217 31.2293 16.1769 30.9669 16.0452 31.1727C16.0207 31.2096 15.6804 31.4171 15.6566 31.4227Z" fill="url(#paint0_linear_1_6334)"/>
<defs>
<linearGradient id="paint0_linear_1_6334" x1="8.89627" y1="31.5205" x2="8.89627" y2="0.826666" gradientUnits="userSpaceOnUse">
<stop stop-color="#FFC6C2"/>
<stop offset="1" stop-color="#E77A74"/>
</linearGradient>
</defs>
</svg>
