<svg width="92" height="89" viewBox="0 0 92 89" fill="none" xmlns="http://www.w3.org/2000/svg">
<path fill-rule="evenodd" clip-rule="evenodd" d="M6.45282 78.5786L6.52855 81.6793H6.23728C6.09748 80.9013 5.76544 80.2812 5.22952 79.8076C4.68777 79.3341 4.11107 79.0973 3.48777 79.0973C3.00427 79.0973 2.61981 79.2213 2.3402 79.475C2.06058 79.7231 1.92078 80.0106 1.92078 80.3319C1.92078 80.5349 1.97321 80.7209 2.07224 80.8788C2.20622 81.093 2.42175 81.3073 2.73049 81.5158C2.95185 81.6681 3.46447 81.933 4.26253 82.3164C5.39262 82.852 6.14991 83.3537 6.5402 83.8273C6.93049 84.3065 7.12272 84.8477 7.12272 85.4566C7.12272 86.2346 6.80816 86.8998 6.17903 87.458C5.55573 88.0161 4.7635 88.298 3.79651 88.298C3.49942 88.298 3.20816 88.2698 2.9402 88.2078C2.67224 88.1514 2.33437 88.0387 1.9266 87.8752C1.69942 87.7793 1.51301 87.7399 1.36738 87.7399C1.24505 87.7399 1.1169 87.785 0.97709 87.8752C0.843109 87.971 0.726604 88.1063 0.645051 88.298H0.400391V84.7913H0.645051C0.85476 85.7779 1.25088 86.5278 1.84505 87.0464C2.43923 87.5595 3.07418 87.8188 3.76156 87.8188C4.29165 87.8188 4.71107 87.6835 5.02563 87.4016C5.3402 87.1253 5.49748 86.804 5.49748 86.4319C5.49748 86.212 5.43923 86.0034 5.3169 85.7949C5.19457 85.5919 5.01398 85.3946 4.76932 85.2085C4.52466 85.0225 4.08777 84.7857 3.46447 84.4869C2.59068 84.0754 1.96156 83.7202 1.58291 83.427C1.20427 83.1339 0.913012 82.8069 0.703303 82.4461C0.49942 82.0853 0.400391 81.685 0.400391 81.2565C0.400391 80.5123 0.680002 79.8809 1.23923 79.3623C1.80427 78.8379 2.50913 78.5786 3.36544 78.5786C3.67418 78.5786 3.97709 78.6181 4.26835 78.6914C4.48971 78.7421 4.7635 78.8436 5.07806 78.9902C5.39845 79.1424 5.61981 79.21 5.74796 79.21C5.87029 79.21 5.96932 79.1762 6.03923 79.1029C6.10913 79.0296 6.17903 78.8549 6.23728 78.5786H6.45282ZM8.03728 78.7928H12.9887V79.0296H12.7441C12.3713 79.0296 12.115 79.0691 11.9751 79.1424C11.8295 79.2213 11.7305 79.3228 11.6781 79.4581C11.614 79.5934 11.5849 79.926 11.5849 80.4616V85.0056C11.5849 85.84 11.6489 86.3868 11.7771 86.6574C11.9111 86.928 12.1208 87.1535 12.4179 87.3283C12.715 87.5087 13.0936 87.5989 13.5421 87.5989C14.0664 87.5989 14.5033 87.4862 14.8703 87.2607C15.2373 87.0295 15.5052 86.7194 15.6858 86.3248C15.8722 85.9245 15.9596 85.2367 15.9596 84.2501V80.4616C15.9596 80.0444 15.913 79.74 15.8256 79.5652C15.7383 79.3848 15.6218 79.2608 15.4878 79.1875C15.2722 79.086 14.9751 79.0296 14.5849 79.0296V78.7928H17.9052V79.0296H17.7072C17.4392 79.0296 17.212 79.086 17.0373 79.1875C16.8567 79.2946 16.7285 79.4525 16.647 79.6667C16.5887 79.8133 16.5538 80.0782 16.5538 80.4616V83.9908C16.5538 85.0789 16.4781 85.8681 16.3324 86.353C16.181 86.8378 15.8256 87.2832 15.2489 87.6891C14.6722 88.095 13.8917 88.298 12.8955 88.298C12.0625 88.298 11.4218 88.1909 10.9732 87.9766C10.3557 87.6835 9.91884 87.3114 9.66253 86.8491C9.41204 86.3981 9.28389 85.7836 9.28389 85.0112V80.4616C9.28389 79.9204 9.24893 79.5878 9.19068 79.4525C9.12661 79.3228 9.02175 79.2213 8.87029 79.1424C8.71884 79.0635 8.43923 79.024 8.03728 79.0296V78.7928ZM18.3538 88.0894V87.847H18.6684C18.948 87.847 19.1635 87.8075 19.3091 87.7229C19.4606 87.6384 19.5713 87.52 19.6412 87.3734C19.6819 87.2776 19.6994 86.99 19.6994 86.5052V80.377C19.6994 79.8978 19.6761 79.599 19.6237 79.4806C19.5713 79.3566 19.4664 79.2551 19.3091 79.1649C19.1518 79.0747 18.9421 79.0296 18.6684 79.0296H18.3538V78.7928H22.647C23.7946 78.7928 24.715 78.9451 25.414 79.2439C26.2703 79.6159 26.9169 80.1741 27.3538 80.9239C27.7965 81.6737 28.0179 82.5194 28.0179 83.4665C28.0179 84.1205 27.9072 84.7237 27.6917 85.2762C27.4761 85.823 27.1965 86.2797 26.8528 86.6405C26.5091 86.9957 26.1072 87.2832 25.6586 87.5031C25.2101 87.7173 24.6567 87.8864 24.0101 88.0048C23.7188 88.0612 23.2645 88.0894 22.647 88.0894H18.3538ZM22.0062 79.3115V86.5616C22.0062 86.9449 22.0237 87.1817 22.0645 87.2663C22.0994 87.3565 22.1635 87.4185 22.2567 87.4636C22.3849 87.5369 22.5654 87.5707 22.8101 87.5707C23.5965 87.5707 24.2023 87.3114 24.6159 86.7871C25.181 86.0824 25.4664 84.9887 25.4664 83.5116C25.4664 82.3164 25.2742 81.3693 24.8839 80.6533C24.581 80.0952 24.1849 79.7174 23.7014 79.5145C23.3577 79.3735 22.7926 79.3059 22.0062 79.3115ZM32.5849 83.6131V86.5052C32.5849 86.9844 32.6082 87.2832 32.6664 87.4016C32.7188 87.52 32.8237 87.6271 32.981 87.7117C33.1383 87.8075 33.348 87.847 33.6159 87.847H33.9305V88.0894H28.9324V87.847H29.247C29.5266 87.847 29.7538 87.8019 29.9227 87.706C30.0451 87.6384 30.1383 87.5313 30.2023 87.3734C30.2548 87.2607 30.2781 86.9731 30.2781 86.5052V80.377C30.2781 79.8978 30.2548 79.599 30.2023 79.4806C30.1499 79.3566 30.0451 79.2551 29.8878 79.1649C29.7305 79.0747 29.5208 79.0296 29.247 79.0296H28.9324V78.7928H33.9305V79.0296H33.6159C33.3421 79.0296 33.1208 79.0804 32.9518 79.1762C32.8295 79.2382 32.7305 79.351 32.6606 79.5088C32.6082 79.6159 32.5849 79.9035 32.5849 80.377V83.0098H35.9868V80.377C35.9868 79.8978 35.9635 79.599 35.9111 79.4806C35.8586 79.3566 35.7538 79.2551 35.5907 79.1649C35.4334 79.0747 35.2237 79.0296 34.9557 79.0296H34.6412V78.7928H39.6392V79.0296H39.3305C39.0509 79.0296 38.8237 79.0804 38.6606 79.1762C38.5383 79.2382 38.4392 79.351 38.3693 79.5088C38.3169 79.6159 38.2936 79.9035 38.2936 80.377V86.5052C38.2936 86.9844 38.3169 87.2832 38.3693 87.4016C38.4218 87.52 38.5266 87.6271 38.6897 87.7117C38.847 87.8075 39.0625 87.847 39.3305 87.847H39.6392V88.0894H34.6412V87.847H34.9557C35.2353 87.847 35.4567 87.8019 35.6198 87.706C35.748 87.6384 35.8412 87.5313 35.9111 87.3734C35.9635 87.2607 35.9868 86.9731 35.9868 86.5052V83.6131H32.5849ZM45.913 85.4397H42.5518L42.1324 86.3473C42.0043 86.6461 41.9344 86.8998 41.9344 87.0972C41.9344 87.3621 42.0451 87.5595 42.2606 87.6835C42.3887 87.7568 42.7033 87.8131 43.2043 87.847V88.0894H40.012V87.847C40.3557 87.7962 40.6412 87.6553 40.8567 87.4298C41.0839 87.2043 41.3577 86.7307 41.6781 86.0147L45.1091 78.6068H45.2431L48.7033 86.2233C49.0353 86.9506 49.3033 87.4129 49.5188 87.5989C49.6819 87.7455 49.9033 87.8244 50.2004 87.847V88.0894H45.5577V87.847H45.7499C46.1227 87.847 46.3849 87.7962 46.5363 87.6948C46.6353 87.6215 46.6878 87.5143 46.6878 87.379C46.6878 87.2945 46.6761 87.2043 46.647 87.1197C46.6353 87.0802 46.5654 86.9055 46.4373 86.5954L45.913 85.4397ZM45.6858 84.9323L44.2528 81.7639L42.7849 84.9323H45.6858ZM53.9635 78.7928L58.6936 84.5489V80.5574C58.6936 79.9937 58.612 79.6159 58.4431 79.4186C58.2159 79.148 57.8373 79.0184 57.3014 79.0296V78.7928H60.4761V79.0296C60.0684 79.0804 59.7946 79.148 59.6548 79.2269C59.5208 79.3059 59.4101 79.4412 59.3285 79.6216C59.2528 79.802 59.212 80.1177 59.212 80.5574V88.298H58.9732L52.4897 80.5462V86.477C52.4897 87.0126 52.6179 87.379 52.8684 87.5651C53.1247 87.7568 53.4159 87.847 53.7421 87.847H53.9693V88.0894H50.5499V87.847C51.08 87.847 51.447 87.7399 51.6567 87.5313C51.8664 87.3227 51.9713 86.9731 51.9713 86.477V79.9035L51.7674 79.661C51.5635 79.4074 51.3887 79.2439 51.2315 79.1649C51.0742 79.086 50.8528 79.0409 50.5616 79.0296V78.7928H53.9635ZM66.8373 85.4397H63.4761L63.0625 86.3473C62.9285 86.6461 62.8645 86.8998 62.8645 87.0972C62.8645 87.3621 62.9693 87.5595 63.1849 87.6835C63.313 87.7568 63.6276 87.8131 64.1285 87.847V88.0894H60.9363V87.847C61.28 87.7962 61.5654 87.6553 61.7868 87.4298C62.0082 87.2043 62.2819 86.7307 62.6082 86.0147L66.0334 78.6068H66.1732L69.6334 86.2233C69.9596 86.9506 70.2334 87.4129 70.4431 87.5989C70.6062 87.7455 70.8334 87.8244 71.1247 87.847V88.0894H66.4819V87.847H66.6742C67.047 87.847 67.3091 87.7962 67.4606 87.6948C67.5654 87.6215 67.612 87.5143 67.612 87.379C67.612 87.2945 67.6004 87.2043 67.5713 87.1197C67.5654 87.0802 67.4955 86.9055 67.3616 86.5954L66.8373 85.4397ZM66.6101 84.9323L65.1771 81.7639L63.715 84.9323H66.6101ZM74.8878 78.7928L79.6179 84.5489V80.5574C79.6179 79.9937 79.5363 79.6159 79.3674 79.4186C79.1402 79.148 78.7616 79.0184 78.2256 79.0296V78.7928H81.4004V79.0296C80.9926 79.0804 80.7188 79.148 80.579 79.2269C80.4451 79.3059 80.3344 79.4412 80.2528 79.6216C80.1771 79.802 80.1421 80.1177 80.1421 80.5574V88.298H79.9033L73.4198 80.5462V86.477C73.4198 87.0126 73.5421 87.379 73.7985 87.5651C74.0489 87.7568 74.3402 87.847 74.6664 87.847H74.8936V88.0894H71.4742V87.847C72.0043 87.847 72.3713 87.7399 72.5868 87.5313C72.7907 87.3227 72.8955 86.9731 72.8955 86.477V79.9035L72.6975 79.661C72.4936 79.4074 72.313 79.2439 72.1557 79.1649C72.0043 79.086 71.7771 79.0409 71.4858 79.0296V78.7928H74.8878ZM81.9363 88.0894V87.847H82.2567C82.5305 87.847 82.746 87.8075 82.8975 87.7229C83.0431 87.6384 83.1538 87.52 83.2237 87.3734C83.2645 87.2776 83.2878 86.99 83.2878 86.5052V80.377C83.2878 79.8978 83.2586 79.599 83.2062 79.4806C83.1538 79.3566 83.0489 79.2551 82.8975 79.1649C82.7402 79.0747 82.5247 79.0296 82.2567 79.0296H81.9363V78.7928H86.2295C87.3771 78.7928 88.3033 78.9451 88.9965 79.2439C89.8528 79.6159 90.4994 80.1741 90.9421 80.9239C91.3849 81.6737 91.6004 82.5194 91.6004 83.4665C91.6004 84.1205 91.4955 84.7237 91.2742 85.2762C91.0586 85.823 90.779 86.2797 90.4353 86.6405C90.0917 86.9957 89.6897 87.2832 89.2412 87.5031C88.7926 87.7173 88.2392 87.8864 87.5926 88.0048C87.3014 88.0612 86.8528 88.0894 86.2295 88.0894H81.9363ZM85.5887 79.3115V86.5616C85.5887 86.9449 85.6062 87.1817 85.647 87.2663C85.6819 87.3565 85.7519 87.4185 85.8392 87.4636C85.9674 87.5369 86.148 87.5707 86.3926 87.5707C87.179 87.5707 87.7849 87.3114 88.1985 86.7871C88.7693 86.0824 89.0548 84.9887 89.0548 83.5116C89.0548 82.3164 88.8567 81.3693 88.4722 80.6533C88.1635 80.0952 87.7674 79.7174 87.2839 79.5145C86.946 79.3735 86.381 79.3059 85.5887 79.3115Z" fill="#077FC3"/>
<path d="M72.2607 14.9065C72.1092 12.6063 71.917 10.3286 71.0898 8.11867C69.8665 4.82063 67.117 1.93977 62.5442 2.1089C62.4684 2.1089 62.3869 2.08071 62.2471 2.05816C63.5403 1.34781 64.9908 1.37036 66.2781 0.879883H68.8238C69.8723 1.26888 71.0141 1.36472 72.0218 1.92286C74.8995 3.51268 76.2684 6.07783 76.9849 9.03762C77.9461 13.0009 77.7189 16.9868 77.0956 20.9782C76.7345 23.3179 76.1985 25.6181 75.5578 27.9013C75.5111 28.0648 75.4238 28.217 75.348 28.3974C73.9616 27.3037 72.616 26.2326 71.2529 25.1727C70.95 24.9359 71.0432 24.6935 71.1131 24.3947C71.8005 21.5702 72.1849 18.7063 72.2199 15.8028C73.4607 15.3969 74.6956 14.9854 75.9364 14.5795C74.6723 14.4554 73.4723 14.7091 72.2607 14.9065Z" fill="#EB3338"/>
<path d="M39.1846 51.9796C37.338 51.1847 35.4914 50.4011 33.6506 49.5893C33.2895 49.4258 33.1963 49.5047 33.1205 49.8486C32.404 53.265 31.9904 56.6871 33.272 60.0641C33.9361 61.8174 35.2293 62.9844 37.2798 63.4185C36.1089 64.0387 35.0254 64.4051 33.8254 64.484C32.404 64.5799 31.4603 63.9654 30.8137 62.7984C30.0157 61.3664 29.8526 59.7822 29.7361 58.2149C29.5671 55.8696 29.8293 53.53 30.173 51.2073C30.3011 50.3729 30.4234 49.5329 30.6098 48.7041C30.738 48.146 30.3594 47.9938 29.9865 47.8078C26.3574 45.9304 22.8215 43.9121 19.5186 41.5274C15.639 38.7311 12.0273 35.6642 9.19043 31.8362C7.41373 29.4458 5.96907 26.9088 5.65451 23.887C5.30499 20.527 6.63315 17.9506 9.38849 16.0056C12.2312 14.0042 15.5632 13.3389 18.971 12.8936C17.7943 13.5475 16.5885 14.1282 15.5749 15.0077C12.8196 17.4037 11.9341 20.3691 12.7089 23.825C13.5128 27.4444 15.6739 30.3309 18.2079 32.9637C23.1768 38.1335 29.2001 41.8995 35.6429 45.096C40.6759 47.5935 45.9011 49.6231 51.3419 51.1227C55.0584 52.1488 58.839 52.9324 62.6895 53.2819C67.4953 53.7104 72.2953 53.7499 76.9788 52.2897C79.2273 51.585 81.2836 50.5533 82.8332 48.7718C84.5283 46.8268 84.9361 44.7972 84.4817 41.3977C85.239 42.5534 85.7982 43.805 86.1011 45.1411C87.3885 50.7845 84.3768 54.2911 79.4312 56.1572C74.7128 57.9387 69.7671 58.1416 64.7807 57.8259C63.4234 57.7357 62.0603 57.6737 60.7205 57.4256C60.2545 57.3354 60.0739 57.6399 59.8526 57.9161C57.3535 61.1296 54.6273 64.157 51.604 66.9139C47.9516 70.2401 44.0429 73.2337 39.3244 75.0434C36.9768 75.9398 34.5652 76.5374 31.9846 76.1089C28.6293 75.5565 26.4856 73.6002 25.1574 70.6855C23.8642 67.8385 23.6137 64.8167 23.6662 61.7554C23.6778 61.1071 23.672 60.4644 23.7535 59.8048C24.1555 60.9436 24.3652 62.1218 24.8021 63.2437C26.9108 68.6616 31.6351 70.5953 37.1458 69.1126C41.0021 68.0752 44.2526 65.9442 47.2467 63.4241C47.305 63.379 47.3283 63.2832 47.3632 63.2099L47.3574 63.2212C48.2079 62.8604 48.7613 62.1444 49.4196 61.5581C51.173 59.9908 52.7691 58.2769 54.3652 56.4052C51.173 55.7569 48.1788 54.8943 45.1788 54.0599C43.2565 53.1636 41.1943 52.6393 39.1846 51.9796Z" fill="#EB3338"/>
<path d="M72.26 14.9065C73.4716 14.7092 74.6716 14.4555 75.9357 14.5795C74.6949 14.9854 73.46 15.397 72.2192 15.8029C67.3609 17.3814 62.6658 19.2475 58.9551 22.8387C58.7221 23.0642 58.5124 23.3179 58.2969 23.5603C57.3357 24.3609 56.5318 25.2911 55.7338 26.2382C51.3707 31.1712 48.1668 36.7018 46.5648 43.0442C46.2736 44.2055 46.0406 45.3895 46.058 46.5959C46.0639 47.0526 46.0173 47.3232 45.394 47.0695C43.2561 46.2069 41.1008 45.3838 38.9396 44.5663C38.5318 44.4141 38.4328 44.1773 38.4095 43.7827C38.2988 41.6686 38.2231 39.5601 38.3745 37.4459C38.427 36.7751 38.3804 36.0985 38.3804 35.4277C38.4561 32.9132 38.5784 30.4045 38.4386 27.8901C38.5202 25.4659 38.3163 23.0755 37.6406 20.7302C37.3493 19.6816 37.058 18.633 36.7668 17.59C35.7357 13.8861 34.0173 10.4753 32.1299 7.12647C32.1881 7.08701 32.2464 7.04191 32.3046 7.00244C33.9532 9.08275 35.4503 11.2758 37.2677 13.2264C39.5338 15.6619 41.8755 18.0072 45.1318 19.2306C46.1687 19.6985 47.2406 20.0142 48.4114 19.8733C50.6542 19.8282 52.7978 19.2193 54.9707 18.7683C60.5163 17.6069 65.9978 16.1693 71.5726 15.1151C71.8056 15.07 72.0328 14.9741 72.26 14.9065Z" fill="#027CC1"/>
<path d="M55.7344 26.2384C56.5324 25.2913 57.3363 24.3611 58.2975 23.5605C62.847 25.6972 67.0994 28.2962 70.9907 31.4364C73.3674 33.3532 75.5693 35.4335 77.3111 37.931C77.8353 38.6865 78.2664 39.4927 78.6101 40.3327C79.5072 42.5088 78.948 44.5046 77.0373 46.162L77.0489 46.179C77.1247 44.4369 76.9849 42.7456 76.047 41.184C75.1441 39.6787 74.014 38.3482 72.8198 37.0684C72.4237 36.6456 72.2897 36.9219 72.1557 37.2545C70.9266 40.2143 69.4528 43.0613 67.8917 45.8632C67.647 46.2973 67.3965 46.7314 67.1402 47.1599C66.1557 48.7892 66.115 48.8005 64.1577 48.5637C63.2256 48.4453 62.2994 48.31 61.3616 48.2649C60.6917 48.2311 60.5752 48.0789 60.948 47.5094C61.6703 46.3988 62.3577 45.26 63.0334 44.1212C64.9965 40.8288 66.68 37.4011 68.1247 33.8606C68.3402 33.3307 68.1305 33.1277 67.7635 32.8684C64.9849 30.9346 62.0373 29.2659 58.9907 27.7663C57.9188 27.2363 56.8237 26.7458 55.7344 26.2384Z" fill="#EB3439"/>
<path d="M54.9357 13.7058C53.9629 16.3724 52.1978 17.6691 49.5998 17.607C47.0192 17.5507 44.7998 15.2899 44.7765 12.7079C44.759 10.0356 46.8153 7.86511 49.4541 7.70162C51.6503 7.56631 53.194 8.56982 54.4231 10.2048C54.9823 11.3154 55.1396 12.4824 54.9357 13.7058Z" fill="#027CC1"/>
<path d="M36.7672 17.5898C37.0585 18.6328 37.3498 19.6814 37.641 20.73C34.3381 20.3692 31.041 19.8787 27.6973 20.2508C25.2216 20.5214 22.7983 20.9217 20.8002 22.5566C19.8973 23.2895 19.4837 24.2761 19.1167 25.3416C18.441 24.5072 18.0216 23.6165 17.7595 22.6524C17.3109 21.0175 17.9517 19.7321 19.6993 18.8413C21.4352 17.9506 23.3342 17.6292 25.2624 17.4263C29.107 17.0204 32.94 17.1951 36.7672 17.5898Z" fill="#EB3439"/>
<path d="M39.1846 51.98C41.1943 52.6396 43.2564 53.1639 45.1787 54.0603C45.7496 57.1497 46.6234 60.1715 47.3574 63.2215L47.3632 63.2103C46.303 62.7874 45.7088 61.8741 45.0448 61.0679C43.0001 58.5704 41.2059 55.9094 39.6389 53.1075C39.4409 52.758 39.336 52.3577 39.1846 51.98Z" fill="#057EC2"/>
<path d="M54.9364 13.7055C55.1403 12.4822 54.9831 11.3152 54.4238 10.2045C56.2879 8.94733 58.2161 7.84798 60.517 7.49844C62.6141 7.17709 64.0704 8.12422 65.4743 9.70841C61.3617 9.29686 58.3908 11.2813 55.4665 13.3898C55.3034 13.5082 55.117 13.5984 54.9364 13.7055Z" fill="#EB3439"/>
<path d="M38.4393 27.8901C38.5792 30.4045 38.4568 32.9133 38.3811 35.4277C37.6122 36.6849 37.0704 38.0436 36.4704 39.3797C36.284 39.8026 36.1267 39.8815 35.7714 39.5996C35.7481 39.5827 35.719 39.5714 35.6957 39.5545C34.9966 39.0922 34.0005 38.7765 33.6918 38.1395C33.4005 37.5419 34.1112 36.7018 34.4025 35.9802C35.5209 33.1783 36.7908 30.444 38.4393 27.8901Z" fill="#EB3439"/>
<path d="M48.4114 19.8732C47.2406 20.0141 46.1687 19.6984 45.1318 19.2305C46.2969 19.1008 47.328 19.6026 48.4114 19.8732Z" fill="#EB3439"/>
<path d="M31.955 6.81073C31.8909 6.7318 31.8268 6.64723 31.7686 6.56831C31.92 6.4781 32.0307 6.51757 32.1006 6.66979C32.0482 6.72052 32.0016 6.76563 31.955 6.81073Z" fill="#027CC1"/>
<path d="M32.1007 6.66992C32.258 6.7263 32.2813 6.86724 32.3046 7.00255C32.2463 7.04201 32.1881 7.08711 32.1298 7.12657C32.0716 7.0251 32.0133 6.91798 31.9551 6.81086C32.0017 6.76576 32.0483 6.72066 32.1007 6.66992Z" fill="#027CC1"/>
<path d="M77.0374 46.1616C77.0082 46.1729 76.9849 46.1898 76.9558 46.2011C76.9442 46.2067 76.9267 46.1954 76.915 46.1898C76.9558 46.1842 77.0024 46.1785 77.049 46.1729C77.049 46.1785 77.0374 46.1616 77.0374 46.1616Z" fill="#EB3439"/>
</svg>
