<svg width="40" height="40" viewBox="0 0 40 40" fill="none" xmlns="http://www.w3.org/2000/svg">
<path fill-rule="evenodd" clip-rule="evenodd" d="M2.65457 35.2121L2.68779 36.6173H2.56004C2.49872 36.2647 2.35309 35.9837 2.11804 35.7691C1.88043 35.5544 1.62749 35.4471 1.35411 35.4471C1.14205 35.4471 0.973429 35.5033 0.850792 35.6183C0.728155 35.7307 0.666837 35.861 0.666837 36.0067C0.666837 36.0986 0.689831 36.183 0.733265 36.2545C0.792029 36.3516 0.886561 36.4487 1.02197 36.5432C1.11906 36.6122 1.34389 36.7323 1.69392 36.906C2.18958 37.1487 2.52172 37.3761 2.6929 37.5907C2.86408 37.8079 2.94839 38.0532 2.94839 38.3291C2.94839 38.6817 2.81042 38.9832 2.53449 39.2361C2.26111 39.489 1.91364 39.6168 1.48952 39.6168C1.35922 39.6168 1.23148 39.604 1.11395 39.5759C0.996423 39.5504 0.848237 39.4993 0.669392 39.4252C0.56975 39.3817 0.487992 39.3638 0.424119 39.3638C0.370465 39.3638 0.314257 39.3843 0.252938 39.4252C0.194175 39.4686 0.143076 39.5299 0.107307 39.6168H0V38.0276H0.107307C0.199285 38.4747 0.37302 38.8145 0.633623 39.0496C0.894226 39.2821 1.17271 39.3996 1.4742 39.3996C1.70669 39.3996 1.89065 39.3383 2.02862 39.2105C2.16658 39.0854 2.23556 38.9397 2.23556 38.7711C2.23556 38.6715 2.21002 38.5769 2.15636 38.4824C2.10271 38.3904 2.02351 38.301 1.9162 38.2167C1.80889 38.1324 1.61727 38.0251 1.34389 37.8896C0.960654 37.7031 0.684722 37.5422 0.518651 37.4093C0.35258 37.2765 0.224834 37.1283 0.132856 36.9648C0.0434338 36.8012 0 36.6198 0 36.4257C0 36.0884 0.122637 35.8023 0.36791 35.5672C0.615738 35.3296 0.924885 35.2121 1.30046 35.2121C1.43587 35.2121 1.56873 35.23 1.69647 35.2632C1.79356 35.2862 1.91364 35.3322 2.05161 35.3986C2.19213 35.4676 2.28922 35.4982 2.34543 35.4982C2.39908 35.4982 2.44251 35.4829 2.47317 35.4497C2.50383 35.4165 2.53449 35.3373 2.56004 35.2121H2.65457ZM3.34951 35.3092H5.52121V35.4165H5.4139C5.25038 35.4165 5.13797 35.4344 5.07665 35.4676C5.01277 35.5033 4.96934 35.5493 4.94635 35.6107C4.91824 35.672 4.90547 35.8227 4.90547 36.0654V38.1247C4.90547 38.5028 4.93357 38.7507 4.98978 38.8733C5.04854 38.9959 5.14052 39.0981 5.27082 39.1773C5.40112 39.2591 5.56719 39.3 5.76392 39.3C5.99387 39.3 6.18549 39.2489 6.34645 39.1467C6.50741 39.0419 6.62494 38.9014 6.70414 38.7226C6.7859 38.5412 6.82422 38.2295 6.82422 37.7823V36.0654C6.82422 35.8764 6.80378 35.7384 6.76546 35.6592C6.72713 35.5774 6.67603 35.5212 6.61727 35.488C6.52274 35.442 6.39244 35.4165 6.22126 35.4165V35.3092H7.67757V35.4165H7.5907C7.47317 35.4165 7.37353 35.442 7.29688 35.488C7.21768 35.5366 7.16147 35.6081 7.1257 35.7052C7.10015 35.7716 7.08482 35.8917 7.08482 36.0654V37.6648C7.08482 38.1579 7.05161 38.5156 6.98774 38.7353C6.92131 38.9551 6.76546 39.1569 6.51252 39.3409C6.25958 39.5248 5.91722 39.6168 5.48033 39.6168C5.11497 39.6168 4.83393 39.5682 4.6372 39.4712C4.36638 39.3383 4.17476 39.1697 4.06234 38.9602C3.95248 38.7558 3.89627 38.4773 3.89627 38.1273V36.0654C3.89627 35.8202 3.88094 35.6694 3.85539 35.6081C3.82729 35.5493 3.7813 35.5033 3.71487 35.4676C3.64844 35.4318 3.5258 35.4139 3.34951 35.4165V35.3092ZM7.8743 39.5223V39.4124H8.01226C8.1349 39.4124 8.22943 39.3945 8.29331 39.3562C8.35973 39.3179 8.40828 39.2642 8.43894 39.1978C8.45682 39.1543 8.46449 39.024 8.46449 38.8043V36.0271C8.46449 35.8099 8.45427 35.6745 8.43127 35.6209C8.40828 35.5647 8.36229 35.5187 8.29331 35.4778C8.22432 35.4369 8.13235 35.4165 8.01226 35.4165H7.8743V35.3092H9.75728C10.2606 35.3092 10.6643 35.3782 10.9709 35.5136C11.3464 35.6822 11.63 35.9351 11.8217 36.2749C12.0158 36.6147 12.1129 36.998 12.1129 37.4272C12.1129 37.7236 12.0644 37.997 11.9699 38.2473C11.8753 38.4952 11.7527 38.7021 11.6019 38.8656C11.4512 39.0266 11.2749 39.1569 11.0782 39.2565C10.8815 39.3536 10.6387 39.4303 10.3551 39.4839C10.2274 39.5095 10.0281 39.5223 9.75728 39.5223H7.8743ZM9.47624 35.5442V38.8299C9.47624 39.0036 9.4839 39.1109 9.50179 39.1492C9.51712 39.1901 9.54522 39.2182 9.5861 39.2387C9.64231 39.2719 9.72151 39.2872 9.82882 39.2872C10.1737 39.2872 10.4394 39.1697 10.6208 38.9321C10.8687 38.6127 10.9939 38.117 10.9939 37.4476C10.9939 36.906 10.9096 36.4768 10.7384 36.1523C10.6055 35.8994 10.4318 35.7282 10.2197 35.6362C10.069 35.5723 9.82115 35.5417 9.47624 35.5442ZM14.116 37.4936V38.8043C14.116 39.0215 14.1262 39.1569 14.1518 39.2105C14.1748 39.2642 14.2207 39.3127 14.2897 39.3511C14.3587 39.3945 14.4507 39.4124 14.5682 39.4124H14.7062V39.5223H12.5141V39.4124H12.652C12.7747 39.4124 12.8743 39.3919 12.9484 39.3485C13.002 39.3179 13.0429 39.2693 13.071 39.1978C13.094 39.1467 13.1042 39.0164 13.1042 38.8043V36.0271C13.1042 35.8099 13.094 35.6745 13.071 35.6209C13.048 35.5647 13.002 35.5187 12.9331 35.4778C12.8641 35.4369 12.7721 35.4165 12.652 35.4165H12.5141V35.3092H14.7062V35.4165H14.5682C14.4481 35.4165 14.351 35.4395 14.277 35.4829C14.2233 35.511 14.1799 35.5621 14.1492 35.6336C14.1262 35.6822 14.116 35.8125 14.116 36.0271V37.2203H15.6081V36.0271C15.6081 35.8099 15.5979 35.6745 15.5749 35.6209C15.5519 35.5647 15.5059 35.5187 15.4343 35.4778C15.3654 35.4369 15.2734 35.4165 15.1559 35.4165H15.0179V35.3092H17.21V35.4165H17.0746C16.952 35.4165 16.8523 35.4395 16.7808 35.4829C16.7271 35.511 16.6837 35.5621 16.653 35.6336C16.63 35.6822 16.6198 35.8125 16.6198 36.0271V38.8043C16.6198 39.0215 16.63 39.1569 16.653 39.2105C16.676 39.2642 16.722 39.3127 16.7936 39.3511C16.8625 39.3945 16.9571 39.4124 17.0746 39.4124H17.21V39.5223H15.0179V39.4124H15.1559C15.2785 39.4124 15.3756 39.3919 15.4471 39.3485C15.5033 39.3179 15.5442 39.2693 15.5749 39.1978C15.5979 39.1467 15.6081 39.0164 15.6081 38.8043V37.4936H14.116ZM19.9617 38.3214H18.4875L18.3035 38.7328C18.2473 38.8682 18.2167 38.9832 18.2167 39.0726C18.2167 39.1927 18.2652 39.2821 18.3597 39.3383C18.4159 39.3715 18.5539 39.3971 18.7736 39.4124V39.5223H17.3735V39.4124C17.5243 39.3894 17.6495 39.3255 17.744 39.2233C17.8436 39.1211 17.9637 38.9065 18.1042 38.582L19.6091 35.2249H19.6679L21.1855 38.6766C21.3311 39.0062 21.4486 39.2157 21.5432 39.3C21.6147 39.3664 21.7118 39.4022 21.8421 39.4124V39.5223H19.8058V39.4124H19.8901C20.0537 39.4124 20.1686 39.3894 20.2351 39.3434C20.2785 39.3102 20.3015 39.2616 20.3015 39.2003C20.3015 39.162 20.2964 39.1211 20.2836 39.0828C20.2785 39.0649 20.2478 38.9857 20.1916 38.8452L19.9617 38.3214ZM19.862 38.0915L19.2335 36.6556L18.5897 38.0915H19.862ZM23.4926 35.3092L25.5672 37.9178V36.1089C25.5672 35.8534 25.5314 35.6822 25.4573 35.5928C25.3577 35.4701 25.1916 35.4114 24.9566 35.4165V35.3092H26.349V35.4165C26.1702 35.4395 26.0501 35.4701 25.9888 35.5059C25.93 35.5417 25.8815 35.603 25.8457 35.6847C25.8125 35.7665 25.7946 35.9096 25.7946 36.1089V39.6168H25.6898L22.8462 36.1038V38.7915C22.8462 39.0343 22.9024 39.2003 23.0123 39.2846C23.1247 39.3715 23.2524 39.4124 23.3955 39.4124H23.4951V39.5223H21.9954V39.4124C22.2279 39.4124 22.3889 39.3638 22.4808 39.2693C22.5728 39.1748 22.6188 39.0164 22.6188 38.7915V35.8125L22.5294 35.7026C22.44 35.5877 22.3633 35.5136 22.2943 35.4778C22.2253 35.442 22.1283 35.4216 22.0005 35.4165V35.3092H23.4926ZM29.139 38.3214H27.6648L27.4834 38.7328C27.4246 38.8682 27.3965 38.9832 27.3965 39.0726C27.3965 39.1927 27.4425 39.2821 27.537 39.3383C27.5933 39.3715 27.7312 39.3971 27.9509 39.4124V39.5223H26.5508V39.4124C26.7016 39.3894 26.8268 39.3255 26.9239 39.2233C27.021 39.1211 27.141 38.9065 27.2841 38.582L28.7864 35.2249H28.8477L30.3654 38.6766C30.5084 39.0062 30.6285 39.2157 30.7205 39.3C30.792 39.3664 30.8917 39.4022 31.0194 39.4124V39.5223H28.9831V39.4124H29.0674C29.231 39.4124 29.3459 39.3894 29.4124 39.3434C29.4584 39.3102 29.4788 39.2616 29.4788 39.2003C29.4788 39.162 29.4737 39.1211 29.4609 39.0828C29.4584 39.0649 29.4277 38.9857 29.3689 38.8452L29.139 38.3214ZM29.0393 38.0915L28.4108 36.6556L27.7695 38.0915H29.0393ZM32.6699 35.3092L34.7445 37.9178V36.1089C34.7445 35.8534 34.7087 35.6822 34.6346 35.5928C34.535 35.4701 34.3689 35.4114 34.1339 35.4165V35.3092H35.5263V35.4165C35.3475 35.4395 35.2274 35.4701 35.1661 35.5059C35.1073 35.5417 35.0588 35.603 35.023 35.6847C34.9898 35.7665 34.9744 35.9096 34.9744 36.1089V39.6168H34.8697L32.0261 36.1038V38.7915C32.0261 39.0343 32.0797 39.2003 32.1921 39.2846C32.302 39.3715 32.4297 39.4124 32.5728 39.4124H32.6725V39.5223H31.1727V39.4124C31.4052 39.4124 31.5662 39.3638 31.6607 39.2693C31.7501 39.1748 31.7961 39.0164 31.7961 38.7915V35.8125L31.7092 35.7026C31.6198 35.5877 31.5406 35.5136 31.4716 35.4778C31.4052 35.442 31.3056 35.4216 31.1778 35.4165V35.3092H32.6699ZM35.7614 39.5223V39.4124H35.9019C36.022 39.4124 36.1165 39.3945 36.1829 39.3562C36.2468 39.3179 36.2953 39.2642 36.326 39.1978C36.3439 39.1543 36.3541 39.024 36.3541 38.8043V36.0271C36.3541 35.8099 36.3413 35.6745 36.3183 35.6209C36.2953 35.5647 36.2494 35.5187 36.1829 35.4778C36.1139 35.4369 36.0194 35.4165 35.9019 35.4165H35.7614V35.3092H37.6444C38.1477 35.3092 38.5539 35.3782 38.8579 35.5136C39.2335 35.6822 39.5171 35.9351 39.7113 36.2749C39.9055 36.6147 40 36.998 40 37.4272C40 37.7236 39.954 37.997 39.8569 38.2473C39.7624 38.4952 39.6398 38.7021 39.489 38.8656C39.3383 39.0266 39.162 39.1569 38.9653 39.2565C38.7685 39.3536 38.5258 39.4303 38.2422 39.4839C38.1145 39.5095 37.9177 39.5223 37.6444 39.5223H35.7614ZM37.3633 35.5442V38.8299C37.3633 39.0036 37.371 39.1109 37.3889 39.1492C37.4042 39.1901 37.4348 39.2182 37.4732 39.2387C37.5294 39.2719 37.6086 39.2872 37.7159 39.2872C38.0608 39.2872 38.3265 39.1697 38.5079 38.9321C38.7583 38.6127 38.8835 38.117 38.8835 37.4476C38.8835 36.906 38.7966 36.4768 38.628 36.1523C38.4926 35.8994 38.3189 35.7282 38.1068 35.6362C37.9586 35.5723 37.7108 35.5417 37.3633 35.5442Z" fill="#077FC3"/>
<path d="M31.5179 6.35667C31.4515 5.31426 31.3672 4.28206 31.0044 3.28053C30.4678 1.7859 29.2619 0.480327 27.2563 0.556975C27.2231 0.556975 27.1873 0.5442 27.126 0.533981C27.6932 0.212059 28.3293 0.222279 28.894 0H30.0105C30.4704 0.17629 30.9711 0.219724 31.4132 0.472662C32.6753 1.19315 33.2757 2.35565 33.59 3.69699C34.0115 5.4931 33.9119 7.29944 33.6385 9.10833C33.4801 10.1686 33.245 11.211 32.964 12.2458C32.9436 12.3199 32.9052 12.3889 32.872 12.4706C32.2639 11.975 31.6738 11.4895 31.0759 11.0092C30.943 10.9019 30.9839 10.792 31.0146 10.6566C31.3161 9.3766 31.4847 8.07869 31.5 6.7629C32.0442 6.57895 32.5859 6.39244 33.1301 6.20848C32.5756 6.15228 32.0493 6.26725 31.5179 6.35667Z" fill="#EB3338"/>
<path d="M17.0105 23.1579C16.2006 22.7976 15.3907 22.4425 14.5833 22.0746C14.4249 22.0005 14.3841 22.0363 14.3509 22.1921C14.0366 23.7404 13.8552 25.2913 14.4173 26.8217C14.7085 27.6162 15.2757 28.1451 16.1751 28.3418C15.6615 28.6229 15.1863 28.789 14.66 28.8247C14.0366 28.8682 13.6227 28.5897 13.3391 28.0608C12.9891 27.4119 12.9175 26.6939 12.8664 25.9836C12.7923 24.9208 12.9073 23.8605 13.0581 22.8079C13.1143 22.4297 13.1679 22.0491 13.2497 21.6735C13.3059 21.4205 13.1398 21.3516 12.9763 21.2672C11.3846 20.4165 9.83373 19.5018 8.38509 18.4211C6.6835 17.1538 5.09945 15.7639 3.85519 14.0291C3.07594 12.9458 2.44232 11.7961 2.30435 10.4267C2.15106 8.90393 2.73358 7.73633 3.94206 6.85488C5.18887 5.94788 6.65029 5.6464 8.14492 5.44456C7.62883 5.74093 7.09996 6.00409 6.6554 6.40266C5.44692 7.4885 5.05857 8.8324 5.39837 10.3986C5.75095 12.0388 6.69883 13.347 7.81023 14.5401C9.98958 16.883 12.6314 18.5897 15.4571 20.0383C17.6646 21.1702 19.9564 22.0899 22.3427 22.7695C23.9727 23.2345 25.6309 23.5897 27.3197 23.7481C29.4275 23.9423 31.5328 23.9601 33.5869 23.2984C34.5731 22.979 35.475 22.5115 36.1546 21.7041C36.8981 20.8227 37.077 19.9029 36.8777 18.3623C37.2098 18.886 37.4551 19.4532 37.5879 20.0588C38.1526 22.6162 36.8317 24.2054 34.6625 25.0511C32.5931 25.8585 30.4239 25.9504 28.2369 25.8074C27.6416 25.7665 27.0437 25.7384 26.4561 25.626C26.2517 25.5851 26.1725 25.723 26.0754 25.8482C24.9794 27.3045 23.7837 28.6765 22.4576 29.9259C20.8557 31.4333 19.1413 32.79 17.0719 33.6101C16.0422 34.0163 14.9845 34.2872 13.8526 34.093C12.381 33.8426 11.4408 32.9561 10.8583 31.6352C10.2911 30.3449 10.1812 28.9755 10.2042 27.5881C10.2093 27.2943 10.2068 27.0031 10.2425 26.7041C10.4188 27.2202 10.5108 27.7542 10.7024 28.2626C11.6273 30.7179 13.6993 31.5943 16.1163 30.9223C17.8077 30.4522 19.2333 29.4865 20.5466 28.3444C20.5721 28.324 20.5823 28.2805 20.5977 28.2473L20.5951 28.2524C20.9681 28.0889 21.2108 27.7644 21.4995 27.4987C22.2686 26.7884 22.9686 26.0117 23.6687 25.1635C22.2686 24.8697 20.9553 24.4788 19.6396 24.1007C18.7964 23.6944 17.892 23.4568 17.0105 23.1579Z" fill="#EB3338"/>
<path d="M31.5179 6.35666C32.0493 6.26724 32.5757 6.15227 33.1301 6.20848C32.5859 6.39243 32.0442 6.57894 31.5 6.7629C29.3692 7.47828 27.3099 8.32396 25.6824 9.95145C25.5803 10.0536 25.4883 10.1686 25.3937 10.2785C24.9722 10.6413 24.6196 11.0628 24.2696 11.4921C22.3559 13.7276 20.9507 16.234 20.2481 19.1083C20.1204 19.6346 20.0182 20.1712 20.0258 20.7179C20.0284 20.9249 20.0079 21.0475 19.7346 20.9325C18.7969 20.5416 17.8516 20.1686 16.9037 19.7982C16.7249 19.7292 16.6814 19.6219 16.6712 19.443C16.6227 18.4849 16.5894 17.5294 16.6559 16.5713C16.6789 16.2672 16.6584 15.9606 16.6584 15.6566C16.6916 14.5171 16.7453 13.3802 16.684 12.2407C16.7198 11.142 16.6303 10.0588 16.334 8.99591C16.2062 8.52069 16.0785 8.04547 15.9507 7.57281C15.4985 5.89422 14.7448 4.34849 13.917 2.83086C13.9425 2.81297 13.9681 2.79254 13.9936 2.77465C14.7167 3.71742 15.3733 4.71129 16.1704 5.59529C17.1643 6.69902 18.1914 7.76188 19.6196 8.3163C20.0744 8.52836 20.5445 8.67143 21.058 8.60756C22.0417 8.58712 22.9819 8.31119 23.9349 8.10679C26.3672 7.58048 28.7714 6.92897 31.2164 6.4512C31.3186 6.43076 31.4183 6.38732 31.5179 6.35666Z" fill="#027CC1"/>
<path d="M24.2695 11.4921C24.6196 11.0629 24.9721 10.6413 25.3937 10.2785C27.3891 11.2468 29.2542 12.4246 30.9609 13.8477C32.0033 14.7164 32.9691 15.6592 33.733 16.791C33.9629 17.1334 34.152 17.4987 34.3027 17.8794C34.6962 18.8656 34.4509 19.7701 33.6129 20.5212L33.618 20.5289C33.6512 19.7394 33.5899 18.9729 33.1786 18.2652C32.7826 17.583 32.2869 16.9801 31.7631 16.4001C31.5894 16.2085 31.5306 16.3337 31.4719 16.4844C30.9328 17.8258 30.2864 19.116 29.6017 20.3858C29.4944 20.5825 29.3845 20.7793 29.2721 20.9734C28.8403 21.7118 28.8224 21.7169 27.964 21.6096C27.5552 21.556 27.1489 21.4946 26.7376 21.4742C26.4438 21.4589 26.3927 21.3899 26.5562 21.1318C26.873 20.6285 27.1745 20.1124 27.4709 19.5963C28.3319 18.1042 29.0702 16.5509 29.7039 14.9464C29.7984 14.7062 29.7064 14.6142 29.5455 14.4967C28.3268 13.6203 27.034 12.8641 25.6977 12.1845C25.2276 11.9443 24.7473 11.722 24.2695 11.4921Z" fill="#EB3439"/>
<path d="M23.9197 5.81248C23.493 7.02096 22.7189 7.60859 21.5794 7.58049C20.4476 7.55494 19.4741 6.53041 19.4639 5.36025C19.4563 4.14921 20.3581 3.16557 21.5155 3.09147C22.4787 3.03016 23.1558 3.48493 23.6949 4.22586C23.9402 4.72918 24.0091 5.25806 23.9197 5.81248Z" fill="#027CC1"/>
<path d="M15.9502 7.57281C16.0779 8.04547 16.2057 8.52069 16.3334 8.99591C14.8848 8.83239 13.4387 8.61011 11.9721 8.77874C10.8863 8.90137 9.82344 9.08277 8.9471 9.8237C8.55108 10.1558 8.36968 10.603 8.20872 11.0858C7.91235 10.7077 7.72839 10.304 7.61342 9.86714C7.41669 9.12621 7.69774 8.54368 8.46421 8.14001C9.22558 7.73633 10.0585 7.5907 10.9042 7.49872C12.5904 7.31476 14.2716 7.39397 15.9502 7.57281Z" fill="#EB3439"/>
<path d="M17.0107 23.1579C17.8922 23.4568 18.7966 23.6944 19.6398 24.1007C19.8901 25.5008 20.2734 26.8702 20.5953 28.2524L20.5979 28.2473C20.1329 28.0557 19.8723 27.6418 19.581 27.2764C18.6842 26.1446 17.8973 24.9387 17.21 23.6689C17.1232 23.5105 17.0772 23.3291 17.0107 23.1579Z" fill="#057EC2"/>
<path d="M23.9192 5.81247C24.0086 5.25805 23.9396 4.72918 23.6943 4.22586C24.5119 3.65611 25.3576 3.1579 26.3668 2.9995C27.2866 2.85386 27.9253 3.28309 28.541 4.00103C26.7373 3.81452 25.4342 4.71385 24.1517 5.6694C24.0801 5.72305 23.9984 5.76393 23.9192 5.81247Z" fill="#EB3439"/>
<path d="M16.6837 12.2407C16.745 13.3802 16.6914 14.5171 16.6582 15.6566C16.3209 16.2264 16.0833 16.8421 15.8201 17.4476C15.7384 17.6392 15.6694 17.675 15.5135 17.5473C15.5033 17.5396 15.4905 17.5345 15.4803 17.5268C15.1737 17.3173 14.7368 17.1742 14.6014 16.8855C14.4737 16.6147 14.7854 16.234 14.9131 15.907C15.4037 14.6372 15.9607 13.3981 16.6837 12.2407Z" fill="#EB3439"/>
<path d="M21.0585 8.60757C20.545 8.67144 20.0749 8.52836 19.6201 8.3163C20.1311 8.25754 20.5833 8.48493 21.0585 8.60757Z" fill="#EB3439"/>
<path d="M13.8405 2.68779C13.8124 2.65202 13.7843 2.6137 13.7588 2.57793C13.8252 2.53705 13.8738 2.55493 13.9044 2.62392C13.8814 2.64691 13.861 2.66735 13.8405 2.68779Z" fill="#027CC1"/>
<path d="M13.9037 2.62391C13.9727 2.64946 13.9829 2.71333 13.9931 2.77465C13.9676 2.79253 13.942 2.81297 13.9165 2.83086C13.8909 2.78487 13.8654 2.73633 13.8398 2.68778C13.8603 2.66734 13.8807 2.6469 13.9037 2.62391Z" fill="#027CC1"/>
<path d="M33.6122 20.5212C33.5995 20.5263 33.5893 20.534 33.5765 20.5391C33.5714 20.5416 33.5637 20.5365 33.5586 20.534C33.5765 20.5314 33.5969 20.5289 33.6174 20.5263C33.6174 20.5289 33.6122 20.5212 33.6122 20.5212Z" fill="#EB3439"/>
</svg>
