<svg width="18" height="32" viewBox="0 0 18 32" fill="none" xmlns="http://www.w3.org/2000/svg">
<path d="M0.860538 30.716C0.977916 30.6361 1.54867 31.0477 1.38983 31.1056C1.36043 31.1143 1.26522 30.9121 1.1955 30.8947C1.06776 30.8635 1.36211 31.1922 1.14472 31.0803C1.10348 31.0571 0.854003 30.7215 0.859562 30.715L0.860538 30.716ZM2.90839 0.423027C3.0806 0.339798 2.62682 0.758897 2.60175 0.785332C2.35084 1.05476 2.70324 0.821049 2.73554 0.813652C2.88333 0.779768 2.86121 0.883922 2.97284 0.866387C3.04673 0.853607 3.34957 0.586577 3.36151 0.61834C3.40069 0.724554 3.00549 1.13047 3.43573 0.876152C3.5278 0.82183 3.84347 0.508471 3.63593 0.798027C3.62279 0.816326 3.42388 1.07305 3.59589 0.96209C3.61838 0.947238 3.71317 0.860829 3.7248 0.857598C3.8008 0.837814 3.74145 0.924333 3.8039 0.921074C3.86685 0.917395 3.95316 0.903807 3.95136 0.965996C3.95009 1.0037 3.79462 1.19063 3.75898 1.24041C3.65753 1.38138 3.89078 1.22529 3.75312 1.38006C3.61467 1.53561 3.3511 1.71264 3.29218 1.84686C3.54337 1.62347 3.80331 1.39571 4.05683 1.17205C4.13642 1.27803 4.14288 1.44768 4.24237 1.53631C4.25514 1.54671 4.37777 1.41408 4.39569 1.42107C4.46674 1.45711 4.41535 1.59249 4.50507 1.61541C4.5757 1.63184 4.76079 1.55354 4.83808 1.56756C4.5781 1.85321 4.73713 1.83489 4.75605 1.90838C4.76157 1.93442 4.68469 2.00166 4.67108 2.03631C4.62168 2.16569 4.85384 1.91708 4.90546 1.89373C5.12443 1.79638 4.55819 2.31535 4.63007 2.36834C4.63525 2.37021 4.97544 2.14047 5.00116 2.12811C5.15781 2.0537 4.90032 2.22926 4.89862 2.27264C4.89544 2.35176 4.84947 2.44677 4.98261 2.41619C5.02221 2.40666 5.24323 2.2701 5.12226 2.42986C5.10652 2.45065 5.00559 2.53806 5.00019 2.54803C4.95048 2.69008 5.2687 2.40689 5.40351 2.341C5.53733 2.27595 5.36227 2.51939 5.3078 2.58611C5.16911 2.75625 5.21947 2.6307 5.20331 2.64178C4.99892 2.79698 5.06277 2.80304 5.0705 2.84393C4.764 3.12712 4.81539 3.14695 5.07929 2.88494C5.1079 2.85642 5.06192 2.86157 5.0705 2.84393C5.39563 2.5929 5.47137 2.5978 5.22773 2.89861C5.11331 3.03977 4.93965 3.16049 5.0539 3.17303C5.10597 3.17828 5.30962 2.97538 5.39081 2.94842C5.57573 2.88739 5.44536 3.14178 5.53046 3.174C5.56173 3.18482 5.6593 3.05897 5.68476 3.06268C5.75178 3.07384 5.69639 3.18806 5.77655 3.18768C5.78623 3.18493 5.89973 3.06844 5.9123 3.07928C6.01002 3.16026 6.00561 3.31173 6.09101 3.41131C6.13262 3.45948 6.27715 3.48392 6.3078 3.5451C6.36117 3.6508 6.27742 3.91587 6.38593 3.94939C6.45625 3.97118 6.5696 3.85094 6.67108 3.79607C6.86725 3.69005 6.64179 4.01878 6.60468 4.06951C6.60244 4.07087 6.53727 4.05718 6.49433 4.13494C6.37583 4.26444 6.59999 4.07276 6.60468 4.06951C6.58162 4.10188 6.62644 4.20748 6.66425 4.2033C6.68605 4.1988 6.79394 4.09316 6.80487 4.091C7.00644 4.10622 7.13371 4.18887 7.1789 4.34783C7.1745 4.35497 7.04969 4.46368 7.04706 4.47381C7.04701 4.58947 7.2423 4.48758 7.38398 4.45525C7.52542 4.42312 7.53067 4.49299 7.33612 4.72478C7.39991 4.73922 7.35363 4.88515 7.32343 4.97186C7.29322 5.05852 7.55021 4.8348 7.5578 4.83318C7.79805 4.77943 7.7018 4.96171 7.76288 5.07537C7.79176 5.1298 7.90775 5.18599 7.9787 5.20916C8.03472 5.22724 7.99662 5.30284 8.06562 5.30389C8.07483 5.30406 8.18066 5.20038 8.18866 5.19549C8.35829 5.11335 8.06689 5.34209 8.0246 5.39471C7.87275 5.58444 7.79461 5.68862 7.92304 5.66326C7.9553 5.65531 8.38009 5.33399 8.42206 5.33416C8.47311 5.33653 8.32516 5.4527 8.38495 5.45037C8.39473 5.44555 8.47619 5.37227 8.48847 5.39178C8.5455 5.48891 8.57581 5.62507 8.66132 5.70232C8.67623 5.70787 8.79601 5.57474 8.81562 5.58611C8.90322 5.65022 8.97631 5.74166 8.98066 5.87713C8.98071 5.91097 8.87409 5.98665 8.84882 6.01678C8.69702 6.19932 8.9832 6.00644 8.99335 6.00799C9.24133 6.03931 9.10981 6.3534 9.34784 6.39861C9.36583 6.39787 9.68533 6.21695 9.47773 6.45232C9.46232 6.46989 9.2511 6.70926 9.43476 6.58611C9.4489 6.57502 9.55404 6.45235 9.56757 6.49139C9.58122 6.53137 9.70438 6.50441 9.60566 6.66521C9.57444 6.71611 9.36301 6.96054 9.58612 6.82732C9.60319 6.81672 10.0829 6.48948 9.80585 6.77654C9.75996 6.82395 9.44358 7.10166 9.64374 7.00213C9.68249 6.98265 9.73918 6.90498 9.80292 6.88787C9.90091 6.86202 9.85897 6.98268 10.0363 6.89959C10.0677 6.88471 10.3086 6.72408 10.1701 6.89471C10.1484 6.92141 10.0385 7.00827 10.0383 7.0324C10.0393 7.14627 10.1677 7.15008 10.1535 7.27947C10.148 7.32549 9.96936 7.46692 9.9455 7.53143C9.9219 7.59591 9.92164 7.68218 10.0207 7.63787C10.1204 7.59306 10.3659 7.32326 10.4211 7.341C10.6605 7.41872 10.6481 7.72087 10.7707 7.9035C10.7892 7.9297 10.8669 7.82414 10.9006 7.8576C11.0252 7.98149 11.3177 8.12533 11.215 8.42303C11.1327 8.66101 10.9058 8.66054 10.9006 8.78924C10.8989 8.85089 11.2397 8.60938 11.2619 8.60467C11.4328 8.59333 11.3443 8.77304 11.4504 8.80584C11.4725 8.81244 11.5873 8.68365 11.6047 8.69061C11.6646 8.71364 11.6486 8.8097 11.6955 8.841C11.7174 8.85376 11.8093 8.76475 11.8176 8.78728C11.837 8.84259 11.8291 8.91532 11.7736 9.03631C11.7661 9.04858 11.6265 9.13271 11.6486 9.16619C11.6844 9.22091 11.6496 9.36081 11.7912 9.33318C11.8342 9.32412 12.0559 9.12485 11.9348 9.29803C11.9087 9.33485 11.6358 9.56452 11.9025 9.39861C11.9481 9.37044 12.3184 9.16071 12.1496 9.3742C12.1052 9.43033 11.9097 9.64773 11.9592 9.63885C11.967 9.63661 12.077 9.51928 12.1037 9.52459C12.1945 9.54731 12.2366 9.62003 12.3273 9.64568C12.3522 9.65106 12.4525 9.5188 12.4855 9.53045C12.5751 9.56723 12.6173 9.67645 12.6359 9.77459C12.6424 9.811 12.5256 9.88677 12.5158 9.89861C12.3613 10.0871 12.6151 9.88866 12.6408 9.88201C12.7767 9.8618 12.7019 10.0073 12.7785 10.0324C12.7995 10.0395 12.9072 9.92463 12.9201 9.91814C13.0475 9.85683 12.8202 10.0215 12.8127 10.0617C12.7949 10.1731 12.8583 10.224 12.9211 10.2638C12.9456 10.2758 13.0592 10.1353 13.0783 10.1496C13.1948 10.2324 13.279 10.3518 13.2961 10.5197C13.2984 10.5518 13.1843 10.6341 13.1642 10.6594C13.025 10.8341 13.2814 10.6738 13.3146 10.6613C13.4506 10.6147 13.3752 10.7135 13.425 10.7355C13.6737 10.8399 13.8152 11.1194 13.9318 11.3244C14.0842 11.5908 14.1424 11.8527 14.3596 12.0422C14.3756 12.0506 14.4973 11.918 14.5119 11.925C14.6806 12.0454 14.761 12.2419 14.9367 12.3566C14.9523 12.3638 15.0645 12.2321 15.092 12.2424C15.1486 12.2652 15.1885 12.3237 15.1838 12.4025C15.18 12.4409 15.0455 12.5147 15.0451 12.551C15.0455 12.6355 15.0815 12.6944 15.1457 12.7238C15.1735 12.7361 15.2802 12.5852 15.3059 12.6105C15.4831 12.7805 15.6668 12.9385 15.6594 13.2785C15.6582 13.3023 15.3976 13.5584 15.4738 13.5383C15.5511 13.4722 15.6404 13.3913 15.7219 13.3195C16.0042 13.5455 16.1463 13.894 16.3713 14.173C16.384 14.1799 16.5069 14.0365 16.5266 14.0568C16.6376 14.1842 16.7874 14.271 16.76 14.5285C16.7554 14.5553 16.4987 14.7749 16.5695 14.7785C16.5825 14.7788 16.6673 14.8053 16.7355 14.7707C16.7456 14.7652 16.8549 14.6479 16.8752 14.6623C16.9886 14.752 17.0621 14.8879 17.0851 15.0588C17.0878 15.0867 16.9464 15.182 16.9465 15.2033C16.9576 15.3493 17.1375 15.3573 17.0978 15.5422C17.0705 15.6668 16.8339 15.8438 16.6457 16.0666C16.6249 16.0915 16.6351 16.1196 16.5793 16.1877C16.6245 16.2282 16.6711 16.2721 16.6926 16.3029C16.7331 16.3614 16.6168 16.2784 16.6594 16.3527C16.7036 16.4285 16.8539 16.5519 16.8361 16.6056C16.7928 16.7292 16.6453 16.8075 16.508 16.8439C16.4651 16.8555 16.3995 16.7699 16.3664 16.7746C16.302 16.7841 16.3079 16.8527 16.2385 16.8566C16.215 16.8575 16.1058 16.7304 16.0832 16.7326C15.9641 16.7526 15.9335 16.8486 15.842 16.8957C15.8043 16.9149 15.7671 16.9351 15.7307 16.9553C15.662 17.0168 15.5924 17.0771 15.5256 17.1398C15.4548 17.2062 15.5726 17.1819 15.3742 17.3117C15.3604 17.3203 15.2735 17.3401 15.2072 17.3849C15.1612 17.4161 15.0424 17.5408 14.9797 17.5763C14.9181 17.6108 15.0119 17.5036 14.9338 17.5392C14.8668 17.5704 14.7586 17.6716 14.6955 17.6896C14.678 17.7035 14.6603 17.7177 14.6428 17.7316C14.5165 17.8314 14.2743 17.8714 14.2121 18.0373C14.2072 18.0578 14.3206 18.1474 14.3273 18.1584C14.4254 18.3264 14.2186 18.1108 14.1642 18.1115C13.9494 18.1151 13.8274 18.2279 13.7726 18.3713C13.7519 18.433 14.0055 18.5852 13.8449 18.5197C13.8339 18.5153 13.7291 18.3981 13.7053 18.3986C13.6522 18.401 13.6238 18.4723 13.5949 18.4855C13.5388 18.5102 13.5337 18.5188 13.4963 18.5568C13.444 18.6077 13.3289 18.6191 13.3019 18.7004C13.2982 18.7188 13.4279 18.8097 13.4309 18.8478C13.4328 18.8859 13.3742 18.9292 13.3303 18.9211C13.2862 18.9121 13.2011 18.8195 13.1769 18.8029C12.9748 18.6639 13.1666 18.9519 13.1662 18.966C13.1412 19.203 12.889 19.1939 12.7678 19.3263C12.6761 19.4272 12.6238 19.5776 12.5295 19.6672C12.4167 19.7733 12.2637 19.8104 12.173 19.9308C12.1634 19.9434 12.3131 20.0565 12.3039 20.0734C12.1807 20.2396 12.0265 20.3762 11.7941 20.4406C11.7705 20.4463 11.667 20.316 11.6359 20.3146C11.4505 20.3147 11.0764 20.2406 11.5559 20.7834C11.4776 20.8269 11.3859 20.8823 11.2277 20.84C11.1258 20.8127 11.0248 20.6566 11.0402 20.7521C11.044 20.774 11.1728 20.8685 11.1691 20.8928C11.1534 20.9948 11.0514 21.0291 11.0539 21.1467C11.0547 21.1708 11.1618 21.263 11.1779 21.2844C11.3014 21.454 11.0041 21.2736 10.9758 21.2678C10.7632 21.2263 10.7605 21.3365 10.6857 21.4113C10.6683 21.4286 10.8274 21.5365 10.8156 21.5578C10.7526 21.6663 10.6542 21.7493 10.5109 21.7804C10.4785 21.7861 10.377 21.6605 10.3547 21.6564C10.2626 21.6477 10.4768 21.8629 10.3928 21.8586C10.3741 21.8563 10.2783 21.7599 10.2648 21.7502C10.0705 21.6146 10.2895 21.8532 10.2971 21.8722C10.3006 22.0192 9.99459 21.8308 9.9621 21.9396C9.96053 21.954 10.1057 22.0513 10.0881 22.0812C9.96875 22.2823 9.76948 22.4276 9.51288 22.4992C9.47314 22.5103 9.39257 22.4032 9.37909 22.3937C9.16895 22.2492 9.40182 22.4948 9.40448 22.5129C9.41084 22.6418 9.14335 22.5117 9.3996 22.8312C9.03698 23.0184 8.94528 23.4524 8.42108 23.4865C8.41236 23.4845 8.29905 23.3695 8.28534 23.3693C8.13748 23.3911 8.34339 23.5513 8.52558 23.8234C8.5713 23.8918 8.24809 23.6746 8.22382 23.6594C8.13433 23.6024 7.96553 23.4193 7.94648 23.4103C7.79492 23.3423 8.40545 23.8943 8.35858 23.9474C8.35266 23.9444 8.25289 23.8398 8.23651 23.8322C8.18913 23.8137 8.21983 23.8679 8.16913 23.8459C8.05169 23.7939 7.7479 23.5354 7.87616 23.7394C7.89476 23.7673 8.24494 24.0726 8.18671 24.1047C8.16282 24.117 8.09255 24.2047 8.04901 24.2072C8.00593 24.2093 7.9118 24.0944 7.90351 24.089C7.69983 24.0161 7.6599 23.9365 7.41425 23.7678C7.17091 23.6009 7.69204 24.0651 7.73944 24.132C7.78418 24.1968 7.62217 24.1323 7.56952 24.1047C7.5174 24.077 7.45984 23.9987 7.42694 23.9865C7.21073 23.9092 7.6561 24.2508 7.71796 24.3478C7.86418 24.5769 7.44702 24.2663 7.36542 24.2775C7.3438 24.2809 7.43944 24.3503 7.43769 24.3693C7.42747 24.4425 7.28335 24.3604 7.34589 24.5119C7.35803 24.539 7.54755 24.7871 7.35566 24.6594C7.32787 24.6407 7.24239 24.5435 7.20331 24.5422C7.14505 24.5411 7.07659 24.574 7.08026 24.634C7.08419 24.6786 7.26339 24.7959 7.18866 24.7795C7.15522 24.7715 7.08533 24.6658 7.03046 24.6584C6.97563 24.6514 6.92361 24.7144 6.90546 24.7404C6.88758 24.7663 7.01828 24.864 7.0246 24.8732C7.05971 24.9261 7.07656 25.0214 7.07343 25.0275C6.90721 25.2367 6.54044 25.2337 6.43085 25.4855C6.42376 25.506 6.55589 25.6112 6.55585 25.6154C6.56008 25.7134 6.26387 25.3669 6.11933 25.3C6.37876 25.5293 6.31421 25.5078 6.30878 25.5695C6.30644 25.5992 6.4125 25.6794 6.42304 25.6916C6.54861 25.8549 6.33799 25.6951 6.29413 25.6633C6.13368 25.5471 6.2874 25.7232 6.17987 25.6457C6.07297 25.5685 5.95458 25.4106 5.92401 25.4455C6.00619 25.5391 6.26829 25.7329 6.28339 25.7951C6.33809 26.0289 5.9801 26.0428 5.88691 26.1047C5.79409 26.1665 5.7859 26.2077 5.71015 26.2238C5.57562 26.2532 5.7792 26.3848 5.81269 26.5109C5.84552 26.6376 5.43415 26.2132 5.33319 26.134C5.23302 26.0553 5.3212 26.1511 5.26191 26.1135C5.20216 26.0752 5.15644 25.9965 5.11737 26.0002C5.07832 26.004 5.19063 26.2169 5.28144 26.3146C5.47379 26.5214 5.71563 26.6942 5.5871 26.6808C5.57911 26.6794 5.47493 26.5656 5.45136 26.5666C5.27189 26.5852 5.1705 26.6834 5.00116 26.7111C4.97678 26.7129 4.8635 26.5876 4.84687 26.5861C4.69008 26.5943 4.93164 26.7619 5.12812 27.0265C4.82129 26.7253 4.60389 26.5717 4.54316 26.631C4.50718 26.6676 4.65044 26.7893 4.72577 26.9035C4.74847 26.938 4.62988 26.8777 4.69062 26.9426C4.88899 27.1547 5.14996 27.3489 4.9953 27.3263C4.98564 27.322 4.88144 27.2114 4.86444 27.2131C4.75985 27.234 4.97407 27.4454 4.93866 27.5392C4.90998 27.6123 4.68625 27.5844 4.60761 27.6252C4.25214 27.2955 4.28001 27.4281 4.50409 27.6779C4.45784 27.7085 4.4323 27.7634 4.36347 27.7707C4.33984 27.7732 4.24531 27.6711 4.23163 27.6613C4.0348 27.527 4.25198 27.7598 4.25702 27.7804C4.26243 27.9573 4.01268 27.867 4.10761 28.1183C4.11507 28.1311 4.35172 28.3596 4.15058 28.2179C4.13527 28.2054 4.05077 28.0762 4.00409 28.1096C3.95606 28.1427 3.75241 28.0996 3.81366 28.2629C3.82889 28.3029 3.99578 28.5224 3.81269 28.4064C3.7876 28.3902 3.72036 28.3221 3.67597 28.2912C3.53368 28.1929 3.77475 28.4328 3.54316 28.258C3.31115 28.0829 3.11229 27.9793 3.20526 28.173C3.21411 28.1853 3.39089 28.3739 3.37323 28.3908C3.34081 28.415 3.26162 28.4189 3.23456 28.4504C3.22173 28.4657 3.35379 28.5707 3.3537 28.5754C3.33153 28.7371 3.15588 28.706 3.01093 28.7678C2.9862 28.7815 3.10076 28.9884 2.93476 28.9045C2.75139 28.8118 2.18435 28.2134 2.24042 28.4396C2.26292 28.5309 2.98687 29.2864 2.52655 28.9894C2.50229 29.2131 2.18564 29.1493 2.20331 29.4123C2.20784 29.4278 2.39792 29.6377 2.38495 29.6515C2.3609 29.6681 2.24911 29.587 2.2287 29.5959C2.14122 29.631 2.17348 29.7674 2.10468 29.8156C2.07821 29.833 1.98223 29.7311 1.95136 29.7531C1.92211 29.7763 2.03917 29.9191 1.93964 29.8957C1.86224 29.8759 1.56017 29.6486 1.49335 29.6554C1.7669 29.9099 1.73801 29.9311 1.76874 30.0431C1.77597 30.0654 1.87861 30.1433 1.88691 30.1584C1.92027 30.22 1.82792 30.1629 1.8664 30.2277C1.87573 30.2435 1.96968 30.331 1.98261 30.3488C2.09502 30.502 1.84467 30.3531 1.79999 30.3263C1.6336 30.2271 1.74258 30.3524 1.66718 30.3244C1.59159 30.2961 1.55275 30.1991 1.4953 30.1945C1.37693 30.1855 1.32749 30.2695 1.27265 30.3205C1.25242 30.3414 1.38689 30.4391 1.39081 30.4474C1.38078 30.5221 1.20502 30.4459 1.43085 30.7004C0.75782 30.1388 1.46713 30.7839 1.28046 30.7316C1.26531 30.7271 0.954312 30.4531 0.926944 30.3918C0.900356 30.331 1.0225 30.3886 0.977726 30.2971C0.964899 30.2729 0.716826 29.9773 0.702335 29.9543C0.604644 29.7916 1.06377 30.2037 1.09198 30.2258C1.3834 30.4504 1.11803 30.1237 1.10663 30.091C1.05914 29.9467 1.16661 29.9585 1.13886 29.8488C1.11983 29.7767 0.82506 29.4995 0.855655 29.4846C0.958067 29.4356 1.39914 29.7912 1.10566 29.3859C1.04301 29.2992 0.701544 29.0145 1.00995 29.1945C1.03033 29.2065 1.30308 29.3796 1.17694 29.2189C1.16078 29.1985 1.06517 29.1112 1.06073 29.0998C1.03412 29.0259 1.12584 29.0773 1.1164 29.0148C1.10693 28.9523 1.08595 28.8672 1.14862 28.8635C1.18705 28.8619 1.38686 28.9987 1.43964 29.0295C1.58909 29.1169 1.41146 28.9001 1.57831 29.0226C1.74602 29.1458 1.94684 29.3913 2.08612 29.4377C1.84044 29.2084 1.59009 28.97 1.34394 28.7385C1.44231 28.6493 1.61052 28.6271 1.68964 28.5197C1.69828 28.5056 1.55491 28.3948 1.56171 28.3771C1.5917 28.304 1.72961 28.3422 1.74433 28.2512C1.75458 28.1796 1.65973 28.0027 1.6662 27.924C1.97414 28.1556 1.94179 27.9999 2.01288 27.9738C2.03786 27.9648 2.1126 28.0357 2.14862 28.0461C2.282 28.083 2.01269 27.8747 1.98456 27.8254C1.86778 27.6168 2.43661 28.1305 2.48359 28.0549C2.47941 28.043 2.22475 27.7336 2.20917 27.7082C2.12082 27.5594 2.32006 27.7984 2.36347 27.7961C2.44273 27.7918 2.54133 27.8288 2.49823 27.6984C2.48453 27.6593 2.32947 27.4537 2.49921 27.5588C2.52158 27.5726 2.62015 27.6663 2.62909 27.6691C2.77468 27.7049 2.46309 27.4154 2.38495 27.2873C2.3071 27.1594 2.56628 27.3105 2.63788 27.3586C2.82044 27.4808 2.69141 27.4424 2.70331 27.4572C2.87704 27.6466 2.87711 27.583 2.91718 27.5715C3.22759 27.8502 3.24289 27.7963 2.95722 27.5578C2.9263 27.5321 2.93532 27.578 2.91718 27.5715C2.63695 27.2709 2.63482 27.1948 2.95722 27.4094C3.10835 27.51 3.24411 27.6715 3.24628 27.5568C3.2469 27.5045 3.02573 27.3208 2.9914 27.2424C2.91318 27.0634 3.17909 27.1692 3.20331 27.0812C3.2114 27.049 3.07736 26.9632 3.07929 26.9377C3.08456 26.8701 3.20268 26.9144 3.19452 26.8342C3.18906 26.8235 3.06483 26.7236 3.07441 26.7101C3.14615 26.6047 3.29836 26.5951 3.38983 26.5002C3.43382 26.4541 3.44436 26.3093 3.50214 26.2726C3.60234 26.2091 3.87418 26.2669 3.89765 26.1554C3.91306 26.0833 3.78298 25.982 3.71894 25.8859C3.59523 25.7005 3.94229 25.8932 3.99726 25.926C3.99899 25.927 3.99132 25.9947 4.07343 26.0304C4.21381 26.1366 3.9974 25.9269 3.99726 25.926C4.03155 25.9463 4.13361 25.8911 4.12519 25.8537C4.11837 25.8322 4.00415 25.7354 4.00116 25.7248C3.99776 25.5222 4.06833 25.3864 4.22284 25.3263C4.23109 25.3308 4.35266 25.4474 4.36054 25.4465C4.47574 25.4356 4.35607 25.2516 4.31073 25.1135C4.26555 24.9753 4.33601 24.9618 4.58515 25.134C4.59408 25.0694 4.74215 25.1023 4.83124 25.1242C4.92041 25.1461 4.67437 24.9109 4.67206 24.9035C4.59647 24.669 4.78714 24.7481 4.89472 24.676C4.94614 24.6419 4.99041 24.5222 5.00702 24.4494C5.01971 24.3914 5.09943 24.422 5.09394 24.3527C5.0904 24.3413 4.97773 24.2457 4.9748 24.2404C4.87736 24.0791 5.1324 24.3479 5.18866 24.3849C5.39182 24.5185 5.50205 24.5876 5.46503 24.4621C5.45652 24.4331 5.09471 24.0373 5.09101 23.9953C5.08839 23.9437 5.21797 24.0811 5.21015 24.0217C5.20529 24.0131 5.12417 23.9381 5.14276 23.924C5.23436 23.8578 5.36649 23.8145 5.43573 23.7219C5.44179 23.7074 5.29514 23.598 5.30683 23.5783C5.36263 23.4851 5.44699 23.4041 5.58124 23.3869C5.6151 23.3842 5.70024 23.4826 5.73261 23.5051C5.9284 23.6391 5.71017 23.3735 5.71015 23.3625C5.71825 23.1118 6.04355 23.2138 6.06659 22.9719C6.06618 22.9566 5.85463 22.6515 6.10956 22.8371C6.12998 22.8519 6.38547 23.0383 6.24628 22.8674C6.23311 22.8538 6.10234 22.7614 6.13983 22.7443C6.17858 22.7271 6.14016 22.6062 6.30976 22.6896C6.36343 22.716 6.62614 22.9034 6.47284 22.6935C6.45742 22.6736 6.09198 22.2323 6.40155 22.4797C6.45301 22.5209 6.76051 22.8096 6.64276 22.6193C6.61972 22.5824 6.53555 22.534 6.51288 22.4719C6.47789 22.3764 6.60342 22.4067 6.50409 22.2375C6.48554 22.2066 6.30401 21.9838 6.48651 22.1056C6.51525 22.1249 6.61202 22.2261 6.63593 22.2238C6.74936 22.212 6.74101 22.0832 6.87128 22.0851C6.91727 22.0857 7.07406 22.2517 7.14081 22.2697C7.20737 22.2874 7.29496 22.2787 7.2414 22.1838C7.18755 22.0887 6.89687 21.8708 6.90839 21.8137C6.96368 21.5675 7.2658 21.5515 7.43671 21.4123C7.46206 21.3916 7.34969 21.3231 7.38007 21.2863C7.492 21.1501 7.60839 20.8449 7.91425 20.9191C8.15914 20.9789 8.17966 21.2049 8.30878 21.1974C8.36851 21.1917 8.09758 20.8771 8.09101 20.8556C8.06394 20.6862 8.25081 20.7576 8.27362 20.6486C8.27825 20.6261 8.14026 20.5244 8.14472 20.506C8.16211 20.4442 8.25922 20.451 8.28632 20.4015C8.29734 20.3786 8.19986 20.2936 8.22187 20.2834C8.27507 20.2591 8.34793 20.2613 8.47284 20.3049C8.4843 20.3089 8.58265 20.4421 8.61444 20.4172C8.66562 20.3761 8.80879 20.3981 8.76777 20.259C8.7547 20.2169 8.53624 20.0149 8.71991 20.1193C8.75841 20.1412 9.01334 20.393 8.82343 20.1428C8.7919 20.101 8.54784 19.7493 8.77655 19.8976C8.8367 19.9366 9.07215 20.1121 9.0578 20.0627C9.05485 20.0551 8.9282 19.9571 8.93085 19.9299C8.94511 19.8374 9.013 19.7888 9.03046 19.6965C9.03482 19.6715 8.89092 19.5819 8.90058 19.548C8.92902 19.4553 9.03489 19.404 9.13105 19.3762C9.16655 19.3665 9.25224 19.4727 9.26581 19.4826C9.46935 19.6198 9.24327 19.3815 9.23749 19.3596C9.20526 19.2265 9.35732 19.288 9.37519 19.2092C9.38028 19.1878 9.25869 19.0935 9.24823 19.0793C9.1753 18.9579 9.35956 19.168 9.40058 19.1721C9.51325 19.1793 9.55806 19.1115 9.59198 19.0451C9.60156 19.0196 9.45219 18.9203 9.46405 18.8996C9.53592 18.7756 9.64674 18.6795 9.81269 18.6467C9.84426 18.641 9.93567 18.7476 9.96308 18.7658C10.1514 18.8891 9.96757 18.6449 9.95331 18.6144C9.89422 18.4829 9.99984 18.5497 10.0168 18.4972C10.0983 18.2399 10.3624 18.0732 10.5559 17.9377C10.8076 17.7604 11.0637 17.678 11.2326 17.4435C11.2404 17.4272 11.0962 17.3183 11.1017 17.3029C11.2062 17.1233 11.3951 17.0249 11.4934 16.839C11.5003 16.8234 11.3576 16.723 11.3654 16.6945C11.3829 16.636 11.4368 16.5908 11.5158 16.5881C11.5543 16.5874 11.6408 16.7157 11.6769 16.7121C11.7615 16.7037 11.8166 16.6619 11.84 16.5949C11.8492 16.5659 11.6892 16.4744 11.7121 16.4465C11.8653 16.2537 12.0062 16.0551 12.3459 16.0304C12.3707 16.0303 12.6484 16.2656 12.6213 16.1916C12.5484 16.1208 12.4601 16.0394 12.381 15.965C12.5803 15.6624 12.9147 15.488 13.1721 15.2375C13.1783 15.2244 13.0223 15.1139 13.0422 15.0929C13.1474 14.9824 13.2169 14.8445 13.4191 14.8205C13.4094 14.6509 13.3187 14.5428 13.1984 14.4836C13.1394 14.4559 12.9633 14.6957 13.0441 14.5412C13.0496 14.5306 13.1751 14.437 13.1769 14.4133C13.1794 14.3605 13.1126 14.3259 13.1017 14.2961C13.0824 14.2378 13.0745 14.2313 13.0402 14.1906C12.9944 14.134 12.9938 14.0178 12.9152 13.9836C12.8976 13.9776 12.7944 14.0992 12.756 14.0988C12.7181 14.0972 12.6814 14.0362 12.6935 13.9933C12.706 13.9506 12.805 13.8746 12.8244 13.8517C12.9825 13.6627 12.6765 13.8276 12.6633 13.8254C12.4302 13.7787 12.463 13.5284 12.343 13.3957C12.2513 13.2955 12.1067 13.2298 12.0266 13.1281C11.9316 13.0063 11.9082 12.8505 11.7971 12.7492C11.7833 12.7414 11.6571 12.8782 11.6428 12.8654C11.4894 12.7279 11.3686 12.5629 11.3264 12.3263C11.3223 12.3025 11.4637 12.2104 11.467 12.1799C11.4843 11.9955 11.5933 11.6305 11.008 12.0578C10.9721 11.9759 10.9255 11.8795 10.9826 11.7258C11.0193 11.6269 11.1835 11.5415 11.0871 11.548C11.0645 11.5508 10.9597 11.6677 10.9357 11.6623C10.8356 11.6374 10.8107 11.534 10.6935 11.5256C10.669 11.5248 10.5673 11.6224 10.5451 11.6359C10.3651 11.743 10.5719 11.4655 10.5812 11.4367C10.6426 11.2289 10.5324 11.2152 10.465 11.134C10.4484 11.1171 10.3283 11.2627 10.3078 11.2502C10.2057 11.1776 10.133 11.0723 10.1154 10.9269C10.1121 10.8942 10.2487 10.8036 10.2531 10.7824C10.2706 10.6914 10.0363 10.8857 10.049 10.8019C10.053 10.7836 10.1573 10.6972 10.1682 10.6847C10.3211 10.504 10.0623 10.6999 10.0432 10.7053C9.89672 10.6953 10.1129 10.4089 10.008 10.3664C9.99422 10.363 9.88276 10.4993 9.85468 10.4787C9.66605 10.3416 9.54035 10.13 9.49335 9.86834C9.48606 9.82782 9.60075 9.7579 9.61152 9.74529C9.77483 9.54983 9.50943 9.75829 9.49042 9.75994C9.36146 9.75457 9.51657 9.50056 9.17499 9.72576C9.02322 9.34741 8.59893 9.21645 8.61444 8.69158C8.61845 8.68219 8.74265 8.5806 8.74335 8.56756C8.73563 8.41849 8.55755 8.60956 8.26972 8.7658C8.19787 8.80455 8.44276 8.50448 8.46112 8.48064C8.5259 8.39695 8.72388 8.24489 8.73456 8.22674C8.81648 8.08236 8.21172 8.63834 8.1623 8.58807C8.16184 8.58551 8.27909 8.49094 8.2873 8.47576C8.30994 8.43052 8.25378 8.45673 8.28046 8.40838C8.34303 8.29652 8.62948 8.0188 8.41523 8.12713C8.38741 8.14144 8.04797 8.4628 8.02167 8.40154C8.01079 8.37618 7.93166 8.29933 7.9328 8.25603C7.93504 8.21246 8.06031 8.12728 8.06366 8.12127C8.1553 7.92553 8.23804 7.893 8.4289 7.66424C8.6175 7.43775 8.10855 7.91395 8.0373 7.95525C7.96817 7.99429 8.04796 7.83781 8.08026 7.78826C8.11271 7.73894 8.1959 7.68901 8.21112 7.6574C8.30814 7.44975 7.92675 7.86163 7.82441 7.91424C7.58242 8.03889 7.93165 7.64984 7.92694 7.56853C7.92394 7.54929 7.84658 7.6369 7.82831 7.63299C7.75773 7.61548 7.85252 7.48039 7.69648 7.5285C7.67092 7.53633 7.40218 7.70466 7.54804 7.52459C7.5693 7.49864 7.67399 7.42266 7.6789 7.38396C7.6854 7.32614 7.65971 7.25597 7.5998 7.25408C7.55523 7.25341 7.42115 7.4207 7.44452 7.34783C7.45545 7.31531 7.56776 7.2553 7.58026 7.20135C7.59223 7.14736 7.53401 7.08977 7.50995 7.06951C7.48609 7.04959 7.3791 7.16821 7.36737 7.17596C7.31218 7.20569 7.21704 7.21445 7.20917 7.21111C7.01635 7.02669 7.05407 6.66155 6.81366 6.52947C6.79419 6.5202 6.67742 6.64291 6.67304 6.64275C6.57462 6.63829 6.94823 6.37518 7.02851 6.23748C6.77601 6.4745 6.80228 6.41162 6.7414 6.40057C6.71172 6.39623 6.62245 6.49303 6.60956 6.50213C6.43483 6.61244 6.61381 6.41784 6.6496 6.37713C6.78044 6.22802 6.59094 6.36544 6.67792 6.2658C6.7649 6.16617 6.93358 6.06184 6.90058 6.0285C6.7997 6.10172 6.58296 6.34443 6.51972 6.35369C6.2822 6.38662 6.30187 6.03047 6.24921 5.93182C6.19648 5.83398 6.15652 5.82206 6.14765 5.74529C6.13124 5.60805 5.98052 5.79905 5.85175 5.82049C5.7229 5.84134 6.18492 5.47086 6.27265 5.37811C6.36015 5.2858 6.25567 5.36455 6.29901 5.30877C6.34259 5.25295 6.42477 5.21508 6.42499 5.17596C6.42416 5.13728 6.20345 5.22855 6.09784 5.30975C5.87388 5.48216 5.67878 5.70716 5.70429 5.58025C5.70946 5.57045 5.83045 5.47927 5.83124 5.45623C5.8297 5.27616 5.74141 5.16694 5.72968 4.99627C5.72827 4.97258 5.86772 4.86781 5.86835 4.85271C5.8748 4.69637 5.68513 4.92092 5.40351 5.09197C5.73316 4.81347 5.90694 4.61115 5.85175 4.54607C5.8185 4.50738 5.68426 4.63999 5.56366 4.70428C5.52782 4.7231 5.5979 4.61068 5.52851 4.66424C5.2989 4.84206 5.08133 5.08452 5.11835 4.93279C5.12515 4.92243 5.24485 4.82882 5.24335 4.81268C5.23193 4.70729 5.00093 4.90202 4.91132 4.8576C4.84124 4.82249 4.89082 4.60265 4.85761 4.52068C5.21906 4.19728 5.08432 4.21311 4.81464 4.41326C4.78867 4.36406 4.73514 4.33253 4.73456 4.26287C4.73609 4.23835 4.84564 4.15541 4.85663 4.14275C5.01022 3.9576 4.75281 4.15751 4.73554 4.1574C4.5594 4.14644 4.67309 3.90541 4.41425 3.97674C4.40494 3.97937 4.15025 4.19981 4.31073 4.01189C4.32377 3.99819 4.46172 3.92483 4.4328 3.87518C4.40455 3.82416 4.46551 3.62562 4.29804 3.67107C4.25611 3.68304 4.02306 3.82858 4.15546 3.6574C4.17431 3.63381 4.24854 3.57453 4.28339 3.53338C4.39455 3.40085 4.13367 3.6178 4.32929 3.4035C4.52502 3.18904 4.64663 3.00083 4.4455 3.07537C4.4395 3.07738 4.22564 3.24325 4.2121 3.22186C4.19108 3.18726 4.19511 3.10792 4.1662 3.0783C4.15203 3.06504 4.04011 3.18166 4.03144 3.18572C3.87222 3.14904 3.91914 2.97726 3.87128 2.82732C3.859 2.80211 3.64327 2.89569 3.74237 2.73846C3.85209 2.5645 4.50033 2.05729 4.27069 2.09197C4.17778 2.10597 3.358 2.75574 3.69648 2.32537C3.4766 2.28056 3.57008 1.97145 3.30683 1.96502C3.29437 1.96522 3.06083 2.14008 3.05097 2.12322C3.03794 2.09725 3.12719 1.99548 3.12128 1.97381C3.09442 1.88391 2.95676 1.90286 2.91523 1.83025C2.89999 1.8025 3.01019 1.71659 2.9914 1.68377C2.97163 1.65186 2.81814 1.75626 2.85077 1.65936C2.87673 1.58495 3.13253 1.30373 3.13202 1.2365C2.85308 1.48531 2.83437 1.45446 2.71991 1.47478C2.69718 1.47994 2.61087 1.57506 2.59491 1.58221C2.52988 1.61017 2.59511 1.52217 2.52655 1.55486C2.50944 1.56334 2.41616 1.64746 2.39667 1.65936C2.23267 1.75792 2.40552 1.52082 2.43573 1.47967C2.54987 1.32347 2.41424 1.42045 2.44941 1.34783C2.48469 1.27533 2.58497 1.24632 2.59491 1.18963C2.61522 1.07236 2.53603 1.01559 2.49042 0.95623C2.47123 0.934915 2.36301 1.05777 2.3537 1.0617C2.28041 1.04484 2.37247 0.877766 2.09784 1.07928C2.72042 0.460707 2.01048 1.10811 2.08124 0.925957C2.08735 0.911132 2.38856 0.627495 2.45234 0.605644C2.51534 0.584716 2.44689 0.70135 2.54218 0.665215C2.56832 0.654044 2.88439 0.435126 2.90839 0.423027ZM1.40546 29.8742C1.30785 29.8109 1.36619 29.9419 1.48749 30.0207C1.58502 30.0839 1.52656 29.953 1.40546 29.8742ZM1.73651 28.6721C1.56227 28.5628 1.8707 28.8893 1.94159 28.9328C2.17191 29.072 1.91203 28.7823 1.73651 28.6721ZM5.80487 25.6701C5.67734 25.5285 5.621 25.5672 5.77558 25.6906C5.78195 25.6953 5.80976 25.6761 5.80487 25.6701ZM7.14081 24.0402C7.0205 23.9317 7.03121 23.9877 7.14862 24.0812C7.15572 24.0866 7.17796 24.0738 7.14081 24.0402ZM8.42694 23.2638C8.22558 23.0245 8.09768 23.1157 8.36054 23.3117C8.37481 23.3207 8.43576 23.2764 8.42694 23.2638ZM16.4787 16.0158C16.6316 15.9017 16.5994 15.8428 16.4621 15.9855C16.4571 15.9915 16.4721 16.0191 16.4787 16.0158ZM8.83612 8.71795C9.09258 8.53978 9.01367 8.40433 8.79413 8.64764C8.78351 8.66085 8.82301 8.72645 8.83612 8.71795ZM8.18378 7.36736C8.30297 7.25775 8.24768 7.26428 8.14374 7.37225C8.13755 7.37869 8.14671 7.40138 8.18378 7.36736ZM6.68866 5.88982C6.84159 5.77591 6.80941 5.71709 6.67206 5.85955C6.66699 5.86553 6.68217 5.89356 6.68866 5.88982ZM4.08612 1.56756C4.21047 1.40487 3.85675 1.68332 3.8078 1.7492C3.6476 1.96554 3.96001 1.73199 4.08612 1.56756ZM2.92304 1.12908C2.9949 1.03802 2.85943 1.085 2.76972 1.19842C2.6976 1.28967 2.83328 1.24254 2.92304 1.12908ZM2.13593 0.509941C2.20428 0.634063 1.74085 1.16485 1.69843 1.00115C1.69175 0.971248 1.90384 0.895169 1.92792 0.827324C1.97082 0.703298 1.61562 0.965696 1.74726 0.759941C1.77176 0.722969 2.11206 0.515499 2.13593 0.509941Z" fill="url(#paint0_linear_1_6300)"/>
<defs>
<linearGradient id="paint0_linear_1_6300" x1="8.89621" y1="0.412109" x2="8.89621" y2="31.106" gradientUnits="userSpaceOnUse">
<stop stop-color="#FFC6C2"/>
<stop offset="1" stop-color="#E77A74"/>
</linearGradient>
</defs>
</svg>
